#N canvas 0 22 1280 752 10;
#X obj 1067 560 dac~;
#X obj 20 823 r~ src_0;
#X obj 83 823 r~ src_1;
#X obj 146 823 r~ src_2;
#X obj 209 823 r~ src_3;
#X obj 272 823 r~ src_4;
#X obj 335 823 r~ src_5;
#X obj 398 823 r~ src_6;
#X obj 461 823 r~ src_7;
#X obj 524 822 r~ src_8;
#X obj 20 900 s~ dst_0;
#X obj 57 927 s~ dst_1;
#X obj 95 900 s~ dst_2;
#X obj 133 927 s~ dst_3;
#X obj 171 900 s~ dst_4;
#X obj 209 927 s~ dst_5;
#X obj 246 901 s~ dst_6;
#X obj 284 928 s~ dst_7;
#X obj 322 901 s~ dst_8;
#X obj 360 928 s~ dst_9;
#X obj 398 901 s~ dst_10;
#X obj 435 928 s~ dst_11;
#X obj 473 901 s~ dst_12;
#X obj 511 928 s~ dst_13;
#X obj 549 901 s~ dst_14;
#X obj 587 928 s~ dst_15;
#X obj 624 901 s~ dst_16;
#X obj 662 928 s~ dst_17;
#X obj 20 19 r~ dst_0;
#X obj 76 19 r~ dst_1;
#X obj 133 19 r~ dst_2;
#X obj 1188 590 snapshot~;
#X obj 1188 561 metro 1;
#X obj 1188 526 tgl 15 0 empty empty empty 17 7 0 10 -262144 -1 -1
0 1;
#X floatatom 1188 625 25 0 0 0 - - -, f 25;
#X obj 210 196 s~ src_1;
#X obj 400 196 s~ src_2;
#X obj 590 196 s~ src_3;
#X obj 20 196 s~ src_0;
#X obj 780 196 s~ src_4;
#X obj 20 426 s~ src_5;
#X obj 210 426 s~ src_6;
#X obj 400 426 s~ src_7;
#X obj 590 426 s~ src_8;
#X obj 20 724 s~ src_9;
#X obj 210 724 s~ src_10;
#X obj 400 724 s~ src_11;
#X obj 700 901 s~ dst_18;
#X obj 738 928 s~ dst_19;
#X obj 776 901 s~ dst_20;
#X obj 813 928 s~ dst_21;
#X obj 587 822 r~ src_9;
#X obj 650 822 r~ src_10;
#X obj 713 822 r~ src_11;
#X obj 210 19 r~ dst_3;
#X obj 266 19 r~ dst_4;
#X obj 323 19 r~ dst_5;
#X obj 400 19 r~ dst_6;
#X obj 456 19 r~ dst_7;
#X obj 513 19 r~ dst_8;
#X obj 780 19 r~ dst_9;
#X obj 893 19 r~ dst_10;
#X obj 20 249 r~ dst_11;
#X obj 133 250 r~ dst_12;
#X obj 210 249 r~ dst_13;
#X obj 323 250 r~ dst_14;
#X obj 400 250 r~ dst_15;
#X obj 513 249 r~ dst_16;
#X obj 590 250 r~ dst_17;
#X obj 703 249 r~ dst_18;
#X obj 20 497 r~ dst_19;
#X obj 210 497 r~ dst_20;
#X obj 400 477 r~ dst_21;
#X obj 454 504 r~ dst_22;
#X obj 508 477 r~ dst_23;
#X obj 563 504 r~ dst_24;
#X obj 1067 528 r~ dst_25;
#X obj 619 674 s~ src_12;
#X obj 732 674 s~ src_13;
#X obj 839 674 s~ src_14;
#X obj 952 674 s~ src_15;
#X obj 776 822 r~ src_12;
#X obj 839 822 r~ src_13;
#X obj 902 822 r~ src_14;
#X obj 965 822 r~ src_15;
#X obj 851 902 s~ dst_22;
#X obj 889 928 s~ dst_23;
#X obj 927 901 s~ dst_24;
#X obj 965 928 s~ dst_25;
#X obj 20 56 x_vco1;
#X obj 210 56 x_vco2;
#X obj 590 56 x_ng;
#X obj 20 286 x_vcf1;
#X obj 400 286 x_vca1;
#X obj 590 286 x_vca2;
#X obj 20 534 x_eg1;
#X obj 400 534 x_mix;
#X obj 619 534 x_kb;
#X obj 839 534 x_seq;
#X obj 20 863 x_mtx, f 158;
#X obj 780 57 x_sh;
#X obj 400 56 x_vco3;
#X obj 210 286 x_vcf2;
#X obj 210 534 x_eg2;
#X connect 1 0 99 0;
#X connect 2 0 99 1;
#X connect 3 0 99 2;
#X connect 4 0 99 3;
#X connect 5 0 99 4;
#X connect 6 0 99 5;
#X connect 7 0 99 6;
#X connect 8 0 99 7;
#X connect 9 0 99 8;
#X connect 28 0 89 0;
#X connect 29 0 89 1;
#X connect 30 0 89 2;
#X connect 31 0 34 0;
#X connect 32 0 31 0;
#X connect 33 0 32 0;
#X connect 51 0 99 9;
#X connect 52 0 99 10;
#X connect 53 0 99 11;
#X connect 54 0 90 0;
#X connect 55 0 90 1;
#X connect 56 0 90 2;
#X connect 57 0 101 0;
#X connect 58 0 101 1;
#X connect 59 0 101 2;
#X connect 60 0 100 0;
#X connect 61 0 100 1;
#X connect 62 0 92 0;
#X connect 63 0 92 1;
#X connect 64 0 102 0;
#X connect 65 0 102 1;
#X connect 66 0 93 0;
#X connect 67 0 93 1;
#X connect 68 0 94 0;
#X connect 69 0 94 1;
#X connect 70 0 95 0;
#X connect 71 0 103 0;
#X connect 72 0 96 0;
#X connect 73 0 96 1;
#X connect 74 0 96 2;
#X connect 75 0 96 3;
#X connect 76 0 0 0;
#X connect 76 0 0 1;
#X connect 81 0 99 12;
#X connect 82 0 99 13;
#X connect 83 0 99 14;
#X connect 84 0 99 15;
#X connect 89 0 38 0;
#X connect 90 0 35 0;
#X connect 91 0 37 0;
#X connect 92 0 40 0;
#X connect 93 0 42 0;
#X connect 94 0 43 0;
#X connect 95 0 44 0;
#X connect 96 0 46 0;
#X connect 97 0 77 0;
#X connect 97 1 78 0;
#X connect 98 0 79 0;
#X connect 98 1 80 0;
#X connect 99 0 10 0;
#X connect 99 1 11 0;
#X connect 99 2 12 0;
#X connect 99 3 13 0;
#X connect 99 4 14 0;
#X connect 99 5 15 0;
#X connect 99 6 16 0;
#X connect 99 7 17 0;
#X connect 99 8 18 0;
#X connect 99 9 19 0;
#X connect 99 10 20 0;
#X connect 99 11 21 0;
#X connect 99 12 22 0;
#X connect 99 13 23 0;
#X connect 99 14 24 0;
#X connect 99 15 25 0;
#X connect 99 16 26 0;
#X connect 99 17 27 0;
#X connect 99 18 47 0;
#X connect 99 19 48 0;
#X connect 99 20 49 0;
#X connect 99 21 50 0;
#X connect 99 22 85 0;
#X connect 99 23 86 0;
#X connect 99 24 87 0;
#X connect 99 25 88 0;
#X connect 100 0 39 0;
#X connect 101 0 36 0;
#X connect 102 0 41 0;
#X connect 103 0 45 0;
