#N canvas 252 83 523 627 10;
#X obj 28 66 outlet~;
#X obj 118 -10 inlet~;
#X obj 118 46 cell 0 0;
#X obj 138 46 cell 1 0;
#X obj 158 46 cell 2 0;
#X obj 178 46 cell 3 0;
#X obj 198 46 cell 4 0;
#X obj 218 46 cell 5 0;
#X obj 238 46 cell 6 0;
#X obj 258 46 cell 7 0;
#X obj 278 46 cell 8 0;
#X obj 298 46 cell 9 0;
#X obj 318 46 cell 10 0;
#X obj 338 46 cell 11 0;
#X obj 358 46 cell 12 0;
#X obj 378 46 cell 13 0;
#X obj 398 46 cell 14 0;
#X obj 418 46 cell 15 0;
#X obj 29 86 outlet~;
#X obj 138 10 inlet~;
#X obj 118 66 cell 0 1;
#X obj 138 66 cell 1 1;
#X obj 158 66 cell 2 1;
#X obj 178 66 cell 3 1;
#X obj 198 66 cell 4 1;
#X obj 218 66 cell 5 1;
#X obj 238 66 cell 6 1;
#X obj 258 66 cell 7 1;
#X obj 278 66 cell 8 1;
#X obj 298 66 cell 9 1;
#X obj 318 66 cell 10 1;
#X obj 338 66 cell 11 1;
#X obj 358 66 cell 12 1;
#X obj 378 66 cell 13 1;
#X obj 398 66 cell 14 1;
#X obj 418 66 cell 15 1;
#X obj 30 106 outlet~;
#X obj 158 -10 inlet~;
#X obj 118 86 cell 0 2;
#X obj 138 86 cell 1 2;
#X obj 158 86 cell 2 2;
#X obj 178 86 cell 3 2;
#X obj 198 86 cell 4 2;
#X obj 218 86 cell 5 2;
#X obj 238 86 cell 6 2;
#X obj 258 86 cell 7 2;
#X obj 278 86 cell 8 2;
#X obj 298 86 cell 9 2;
#X obj 318 86 cell 10 2;
#X obj 338 86 cell 11 2;
#X obj 358 86 cell 12 2;
#X obj 378 86 cell 13 2;
#X obj 398 86 cell 14 2;
#X obj 418 86 cell 15 2;
#X obj 31 126 outlet~;
#X obj 178 10 inlet~;
#X obj 118 106 cell 0 3;
#X obj 138 106 cell 1 3;
#X obj 158 106 cell 2 3;
#X obj 178 106 cell 3 3;
#X obj 198 106 cell 4 3;
#X obj 218 106 cell 5 3;
#X obj 238 106 cell 6 3;
#X obj 258 106 cell 7 3;
#X obj 278 106 cell 8 3;
#X obj 298 106 cell 9 3;
#X obj 318 106 cell 10 3;
#X obj 338 106 cell 11 3;
#X obj 358 106 cell 12 3;
#X obj 378 106 cell 13 3;
#X obj 398 106 cell 14 3;
#X obj 418 106 cell 15 3;
#X obj 32 146 outlet~;
#X obj 198 -10 inlet~;
#X obj 118 126 cell 0 4;
#X obj 138 126 cell 1 4;
#X obj 158 126 cell 2 4;
#X obj 178 126 cell 3 4;
#X obj 198 126 cell 4 4;
#X obj 218 126 cell 5 4;
#X obj 238 126 cell 6 4;
#X obj 258 126 cell 7 4;
#X obj 278 126 cell 8 4;
#X obj 298 126 cell 9 4;
#X obj 318 126 cell 10 4;
#X obj 338 126 cell 11 4;
#X obj 358 126 cell 12 4;
#X obj 378 126 cell 13 4;
#X obj 398 126 cell 14 4;
#X obj 418 126 cell 15 4;
#X obj 33 166 outlet~;
#X obj 218 10 inlet~;
#X obj 118 146 cell 0 5;
#X obj 138 146 cell 1 5;
#X obj 158 146 cell 2 5;
#X obj 178 146 cell 3 5;
#X obj 198 146 cell 4 5;
#X obj 218 146 cell 5 5;
#X obj 238 146 cell 6 5;
#X obj 258 146 cell 7 5;
#X obj 278 146 cell 8 5;
#X obj 298 146 cell 9 5;
#X obj 318 146 cell 10 5;
#X obj 338 146 cell 11 5;
#X obj 358 146 cell 12 5;
#X obj 378 146 cell 13 5;
#X obj 398 146 cell 14 5;
#X obj 418 146 cell 15 5;
#X obj 34 186 outlet~;
#X obj 238 -10 inlet~;
#X obj 118 166 cell 0 6;
#X obj 138 166 cell 1 6;
#X obj 158 166 cell 2 6;
#X obj 178 166 cell 3 6;
#X obj 198 166 cell 4 6;
#X obj 218 166 cell 5 6;
#X obj 238 166 cell 6 6;
#X obj 258 166 cell 7 6;
#X obj 278 166 cell 8 6;
#X obj 298 166 cell 9 6;
#X obj 318 166 cell 10 6;
#X obj 338 166 cell 11 6;
#X obj 358 166 cell 12 6;
#X obj 378 166 cell 13 6;
#X obj 398 166 cell 14 6;
#X obj 418 166 cell 15 6;
#X obj 35 206 outlet~;
#X obj 258 10 inlet~;
#X obj 118 186 cell 0 7;
#X obj 138 186 cell 1 7;
#X obj 158 186 cell 2 7;
#X obj 178 186 cell 3 7;
#X obj 198 186 cell 4 7;
#X obj 218 186 cell 5 7;
#X obj 238 186 cell 6 7;
#X obj 258 186 cell 7 7;
#X obj 278 186 cell 8 7;
#X obj 298 186 cell 9 7;
#X obj 318 186 cell 10 7;
#X obj 338 186 cell 11 7;
#X obj 358 186 cell 12 7;
#X obj 378 186 cell 13 7;
#X obj 398 186 cell 14 7;
#X obj 418 186 cell 15 7;
#X obj 36 226 outlet~;
#X obj 278 -10 inlet~;
#X obj 118 206 cell 0 8;
#X obj 138 206 cell 1 8;
#X obj 158 206 cell 2 8;
#X obj 178 206 cell 3 8;
#X obj 198 206 cell 4 8;
#X obj 218 206 cell 5 8;
#X obj 238 206 cell 6 8;
#X obj 258 206 cell 7 8;
#X obj 278 206 cell 8 8;
#X obj 298 206 cell 9 8;
#X obj 318 206 cell 10 8;
#X obj 338 206 cell 11 8;
#X obj 358 206 cell 12 8;
#X obj 378 206 cell 13 8;
#X obj 398 206 cell 14 8;
#X obj 418 206 cell 15 8;
#X obj 37 246 outlet~;
#X obj 298 10 inlet~;
#X obj 118 226 cell 0 9;
#X obj 138 226 cell 1 9;
#X obj 158 226 cell 2 9;
#X obj 178 226 cell 3 9;
#X obj 198 226 cell 4 9;
#X obj 218 226 cell 5 9;
#X obj 238 226 cell 6 9;
#X obj 258 226 cell 7 9;
#X obj 278 226 cell 8 9;
#X obj 298 226 cell 9 9;
#X obj 318 226 cell 10 9;
#X obj 338 226 cell 11 9;
#X obj 358 226 cell 12 9;
#X obj 378 226 cell 13 9;
#X obj 398 226 cell 14 9;
#X obj 418 226 cell 15 9;
#X obj 38 266 outlet~;
#X obj 318 -10 inlet~;
#X obj 118 246 cell 0 10;
#X obj 138 246 cell 1 10;
#X obj 158 246 cell 2 10;
#X obj 178 246 cell 3 10;
#X obj 198 246 cell 4 10;
#X obj 218 246 cell 5 10;
#X obj 238 246 cell 6 10;
#X obj 258 246 cell 7 10;
#X obj 278 246 cell 8 10;
#X obj 298 246 cell 9 10;
#X obj 318 246 cell 10 10;
#X obj 338 246 cell 11 10;
#X obj 358 246 cell 12 10;
#X obj 378 246 cell 13 10;
#X obj 398 246 cell 14 10;
#X obj 418 246 cell 15 10;
#X obj 39 286 outlet~;
#X obj 338 10 inlet~;
#X obj 118 266 cell 0 11;
#X obj 138 266 cell 1 11;
#X obj 158 266 cell 2 11;
#X obj 178 266 cell 3 11;
#X obj 198 266 cell 4 11;
#X obj 218 266 cell 5 11;
#X obj 238 266 cell 6 11;
#X obj 258 266 cell 7 11;
#X obj 278 266 cell 8 11;
#X obj 298 266 cell 9 11;
#X obj 318 266 cell 10 11;
#X obj 338 266 cell 11 11;
#X obj 358 266 cell 12 11;
#X obj 378 266 cell 13 11;
#X obj 398 266 cell 14 11;
#X obj 418 266 cell 15 11;
#X obj 40 306 outlet~;
#X obj 358 -10 inlet~;
#X obj 118 286 cell 0 12;
#X obj 138 286 cell 1 12;
#X obj 158 286 cell 2 12;
#X obj 178 286 cell 3 12;
#X obj 198 286 cell 4 12;
#X obj 218 286 cell 5 12;
#X obj 238 286 cell 6 12;
#X obj 258 286 cell 7 12;
#X obj 278 286 cell 8 12;
#X obj 298 286 cell 9 12;
#X obj 318 286 cell 10 12;
#X obj 338 286 cell 11 12;
#X obj 358 286 cell 12 12;
#X obj 378 286 cell 13 12;
#X obj 398 286 cell 14 12;
#X obj 418 286 cell 15 12;
#X obj 41 326 outlet~;
#X obj 378 10 inlet~;
#X obj 118 306 cell 0 13;
#X obj 138 306 cell 1 13;
#X obj 158 306 cell 2 13;
#X obj 178 306 cell 3 13;
#X obj 198 306 cell 4 13;
#X obj 218 306 cell 5 13;
#X obj 238 306 cell 6 13;
#X obj 258 306 cell 7 13;
#X obj 278 306 cell 8 13;
#X obj 298 306 cell 9 13;
#X obj 318 306 cell 10 13;
#X obj 338 306 cell 11 13;
#X obj 358 306 cell 12 13;
#X obj 378 306 cell 13 13;
#X obj 398 306 cell 14 13;
#X obj 418 306 cell 15 13;
#X obj 42 346 outlet~;
#X obj 398 -10 inlet~;
#X obj 118 326 cell 0 14;
#X obj 138 326 cell 1 14;
#X obj 158 326 cell 2 14;
#X obj 178 326 cell 3 14;
#X obj 198 326 cell 4 14;
#X obj 218 326 cell 5 14;
#X obj 238 326 cell 6 14;
#X obj 258 326 cell 7 14;
#X obj 278 326 cell 8 14;
#X obj 298 326 cell 9 14;
#X obj 318 326 cell 10 14;
#X obj 338 326 cell 11 14;
#X obj 358 326 cell 12 14;
#X obj 378 326 cell 13 14;
#X obj 398 326 cell 14 14;
#X obj 418 326 cell 15 14;
#X obj 43 366 outlet~;
#X obj 418 10 inlet~;
#X obj 118 346 cell 0 15;
#X obj 138 346 cell 1 15;
#X obj 158 346 cell 2 15;
#X obj 178 346 cell 3 15;
#X obj 198 346 cell 4 15;
#X obj 218 346 cell 5 15;
#X obj 238 346 cell 6 15;
#X obj 258 346 cell 7 15;
#X obj 278 346 cell 8 15;
#X obj 298 346 cell 9 15;
#X obj 318 346 cell 10 15;
#X obj 338 346 cell 11 15;
#X obj 358 346 cell 12 15;
#X obj 378 346 cell 13 15;
#X obj 398 346 cell 14 15;
#X obj 418 346 cell 15 15;
#X obj 44 386 outlet~;
#X obj 118 366 cell 0 16;
#X obj 138 366 cell 1 16;
#X obj 158 366 cell 2 16;
#X obj 178 366 cell 3 16;
#X obj 198 366 cell 4 16;
#X obj 218 366 cell 5 16;
#X obj 238 366 cell 6 16;
#X obj 258 366 cell 7 16;
#X obj 278 366 cell 8 16;
#X obj 298 366 cell 9 16;
#X obj 318 366 cell 10 16;
#X obj 338 366 cell 11 16;
#X obj 358 366 cell 12 16;
#X obj 378 366 cell 13 16;
#X obj 398 366 cell 14 16;
#X obj 418 366 cell 15 16;
#X obj 45 406 outlet~;
#X obj 118 386 cell 0 17;
#X obj 138 386 cell 1 17;
#X obj 158 386 cell 2 17;
#X obj 178 386 cell 3 17;
#X obj 198 386 cell 4 17;
#X obj 218 386 cell 5 17;
#X obj 238 386 cell 6 17;
#X obj 258 386 cell 7 17;
#X obj 278 386 cell 8 17;
#X obj 298 386 cell 9 17;
#X obj 318 386 cell 10 17;
#X obj 338 386 cell 11 17;
#X obj 358 386 cell 12 17;
#X obj 378 386 cell 13 17;
#X obj 398 386 cell 14 17;
#X obj 418 386 cell 15 17;
#X obj 46 426 outlet~;
#X obj 118 406 cell 0 18;
#X obj 138 406 cell 1 18;
#X obj 158 406 cell 2 18;
#X obj 178 406 cell 3 18;
#X obj 198 406 cell 4 18;
#X obj 218 406 cell 5 18;
#X obj 238 406 cell 6 18;
#X obj 258 406 cell 7 18;
#X obj 278 406 cell 8 18;
#X obj 298 406 cell 9 18;
#X obj 318 406 cell 10 18;
#X obj 338 406 cell 11 18;
#X obj 358 406 cell 12 18;
#X obj 378 406 cell 13 18;
#X obj 398 406 cell 14 18;
#X obj 418 406 cell 15 18;
#X obj 47 446 outlet~;
#X obj 118 426 cell 0 19;
#X obj 138 426 cell 1 19;
#X obj 158 426 cell 2 19;
#X obj 178 426 cell 3 19;
#X obj 198 426 cell 4 19;
#X obj 218 426 cell 5 19;
#X obj 238 426 cell 6 19;
#X obj 258 426 cell 7 19;
#X obj 278 426 cell 8 19;
#X obj 298 426 cell 9 19;
#X obj 318 426 cell 10 19;
#X obj 338 426 cell 11 19;
#X obj 358 426 cell 12 19;
#X obj 378 426 cell 13 19;
#X obj 398 426 cell 14 19;
#X obj 418 426 cell 15 19;
#X obj 48 466 outlet~;
#X obj 118 446 cell 0 20;
#X obj 138 446 cell 1 20;
#X obj 158 446 cell 2 20;
#X obj 178 446 cell 3 20;
#X obj 198 446 cell 4 20;
#X obj 218 446 cell 5 20;
#X obj 238 446 cell 6 20;
#X obj 258 446 cell 7 20;
#X obj 278 446 cell 8 20;
#X obj 298 446 cell 9 20;
#X obj 318 446 cell 10 20;
#X obj 338 446 cell 11 20;
#X obj 358 446 cell 12 20;
#X obj 378 446 cell 13 20;
#X obj 398 446 cell 14 20;
#X obj 418 446 cell 15 20;
#X obj 49 486 outlet~;
#X obj 118 466 cell 0 21;
#X obj 138 466 cell 1 21;
#X obj 158 466 cell 2 21;
#X obj 178 466 cell 3 21;
#X obj 198 466 cell 4 21;
#X obj 218 466 cell 5 21;
#X obj 238 466 cell 6 21;
#X obj 258 466 cell 7 21;
#X obj 278 466 cell 8 21;
#X obj 298 466 cell 9 21;
#X obj 318 466 cell 10 21;
#X obj 338 466 cell 11 21;
#X obj 358 466 cell 12 21;
#X obj 378 466 cell 13 21;
#X obj 398 466 cell 14 21;
#X obj 418 466 cell 15 21;
#X obj 50 506 outlet~;
#X obj 118 486 cell 0 22;
#X obj 138 486 cell 1 22;
#X obj 158 486 cell 2 22;
#X obj 178 486 cell 3 22;
#X obj 198 486 cell 4 22;
#X obj 218 486 cell 5 22;
#X obj 238 486 cell 6 22;
#X obj 258 486 cell 7 22;
#X obj 278 486 cell 8 22;
#X obj 298 486 cell 9 22;
#X obj 318 486 cell 10 22;
#X obj 338 486 cell 11 22;
#X obj 358 486 cell 12 22;
#X obj 378 486 cell 13 22;
#X obj 398 486 cell 14 22;
#X obj 418 486 cell 15 22;
#X obj 51 526 outlet~;
#X obj 118 506 cell 0 23;
#X obj 138 506 cell 1 23;
#X obj 158 506 cell 2 23;
#X obj 178 506 cell 3 23;
#X obj 198 506 cell 4 23;
#X obj 218 506 cell 5 23;
#X obj 238 506 cell 6 23;
#X obj 258 506 cell 7 23;
#X obj 278 506 cell 8 23;
#X obj 298 506 cell 9 23;
#X obj 318 506 cell 10 23;
#X obj 338 506 cell 11 23;
#X obj 358 506 cell 12 23;
#X obj 378 506 cell 13 23;
#X obj 398 506 cell 14 23;
#X obj 418 506 cell 15 23;
#X obj 52 546 outlet~;
#X obj 118 526 cell 0 24;
#X obj 138 526 cell 1 24;
#X obj 158 526 cell 2 24;
#X obj 178 526 cell 3 24;
#X obj 198 526 cell 4 24;
#X obj 218 526 cell 5 24;
#X obj 238 526 cell 6 24;
#X obj 258 526 cell 7 24;
#X obj 278 526 cell 8 24;
#X obj 298 526 cell 9 24;
#X obj 318 526 cell 10 24;
#X obj 338 526 cell 11 24;
#X obj 358 526 cell 12 24;
#X obj 378 526 cell 13 24;
#X obj 398 526 cell 14 24;
#X obj 418 526 cell 15 24;
#X obj 53 566 outlet~;
#X obj 118 546 cell 0 25;
#X obj 138 546 cell 1 25;
#X obj 158 546 cell 2 25;
#X obj 178 546 cell 3 25;
#X obj 198 546 cell 4 25;
#X obj 218 546 cell 5 25;
#X obj 238 546 cell 6 25;
#X obj 258 546 cell 7 25;
#X obj 278 546 cell 8 25;
#X obj 298 546 cell 9 25;
#X obj 318 546 cell 10 25;
#X obj 338 546 cell 11 25;
#X obj 358 546 cell 12 25;
#X obj 378 546 cell 13 25;
#X obj 398 546 cell 14 25;
#X obj 418 546 cell 15 25;
#X connect 1 0 2 0;
#X connect 1 0 20 0;
#X connect 1 0 38 0;
#X connect 1 0 56 0;
#X connect 1 0 74 0;
#X connect 1 0 92 0;
#X connect 1 0 110 0;
#X connect 1 0 128 0;
#X connect 1 0 146 0;
#X connect 1 0 164 0;
#X connect 1 0 182 0;
#X connect 1 0 200 0;
#X connect 1 0 218 0;
#X connect 1 0 236 0;
#X connect 1 0 254 0;
#X connect 1 0 272 0;
#X connect 1 0 289 0;
#X connect 1 0 306 0;
#X connect 1 0 323 0;
#X connect 1 0 340 0;
#X connect 1 0 357 0;
#X connect 1 0 374 0;
#X connect 1 0 391 0;
#X connect 1 0 408 0;
#X connect 1 0 425 0;
#X connect 1 0 442 0;
#X connect 2 0 0 0;
#X connect 3 0 0 0;
#X connect 4 0 0 0;
#X connect 5 0 0 0;
#X connect 6 0 0 0;
#X connect 7 0 0 0;
#X connect 8 0 0 0;
#X connect 9 0 0 0;
#X connect 10 0 0 0;
#X connect 11 0 0 0;
#X connect 12 0 0 0;
#X connect 13 0 0 0;
#X connect 14 0 0 0;
#X connect 15 0 0 0;
#X connect 16 0 0 0;
#X connect 17 0 0 0;
#X connect 19 0 3 0;
#X connect 19 0 21 0;
#X connect 19 0 39 0;
#X connect 19 0 57 0;
#X connect 19 0 75 0;
#X connect 19 0 93 0;
#X connect 19 0 111 0;
#X connect 19 0 129 0;
#X connect 19 0 147 0;
#X connect 19 0 165 0;
#X connect 19 0 183 0;
#X connect 19 0 201 0;
#X connect 19 0 219 0;
#X connect 19 0 237 0;
#X connect 19 0 255 0;
#X connect 19 0 273 0;
#X connect 19 0 290 0;
#X connect 19 0 307 0;
#X connect 19 0 324 0;
#X connect 19 0 341 0;
#X connect 19 0 358 0;
#X connect 19 0 375 0;
#X connect 19 0 392 0;
#X connect 19 0 409 0;
#X connect 19 0 426 0;
#X connect 19 0 443 0;
#X connect 20 0 18 0;
#X connect 21 0 18 0;
#X connect 22 0 18 0;
#X connect 23 0 18 0;
#X connect 24 0 18 0;
#X connect 25 0 18 0;
#X connect 26 0 18 0;
#X connect 27 0 18 0;
#X connect 28 0 18 0;
#X connect 29 0 18 0;
#X connect 30 0 18 0;
#X connect 31 0 18 0;
#X connect 32 0 18 0;
#X connect 33 0 18 0;
#X connect 34 0 18 0;
#X connect 35 0 18 0;
#X connect 37 0 4 0;
#X connect 37 0 22 0;
#X connect 37 0 40 0;
#X connect 37 0 58 0;
#X connect 37 0 76 0;
#X connect 37 0 94 0;
#X connect 37 0 112 0;
#X connect 37 0 130 0;
#X connect 37 0 148 0;
#X connect 37 0 166 0;
#X connect 37 0 184 0;
#X connect 37 0 202 0;
#X connect 37 0 220 0;
#X connect 37 0 238 0;
#X connect 37 0 256 0;
#X connect 37 0 274 0;
#X connect 37 0 291 0;
#X connect 37 0 308 0;
#X connect 37 0 325 0;
#X connect 37 0 342 0;
#X connect 37 0 359 0;
#X connect 37 0 376 0;
#X connect 37 0 393 0;
#X connect 37 0 410 0;
#X connect 37 0 427 0;
#X connect 37 0 444 0;
#X connect 38 0 36 0;
#X connect 39 0 36 0;
#X connect 40 0 36 0;
#X connect 41 0 36 0;
#X connect 42 0 36 0;
#X connect 43 0 36 0;
#X connect 44 0 36 0;
#X connect 45 0 36 0;
#X connect 46 0 36 0;
#X connect 47 0 36 0;
#X connect 48 0 36 0;
#X connect 49 0 36 0;
#X connect 50 0 36 0;
#X connect 51 0 36 0;
#X connect 52 0 36 0;
#X connect 53 0 36 0;
#X connect 55 0 5 0;
#X connect 55 0 23 0;
#X connect 55 0 41 0;
#X connect 55 0 59 0;
#X connect 55 0 77 0;
#X connect 55 0 95 0;
#X connect 55 0 113 0;
#X connect 55 0 131 0;
#X connect 55 0 149 0;
#X connect 55 0 167 0;
#X connect 55 0 185 0;
#X connect 55 0 203 0;
#X connect 55 0 221 0;
#X connect 55 0 239 0;
#X connect 55 0 257 0;
#X connect 55 0 275 0;
#X connect 55 0 292 0;
#X connect 55 0 309 0;
#X connect 55 0 326 0;
#X connect 55 0 343 0;
#X connect 55 0 360 0;
#X connect 55 0 377 0;
#X connect 55 0 394 0;
#X connect 55 0 411 0;
#X connect 55 0 428 0;
#X connect 55 0 445 0;
#X connect 56 0 54 0;
#X connect 57 0 54 0;
#X connect 58 0 54 0;
#X connect 59 0 54 0;
#X connect 60 0 54 0;
#X connect 61 0 54 0;
#X connect 62 0 54 0;
#X connect 63 0 54 0;
#X connect 64 0 54 0;
#X connect 65 0 54 0;
#X connect 66 0 54 0;
#X connect 67 0 54 0;
#X connect 68 0 54 0;
#X connect 69 0 54 0;
#X connect 70 0 54 0;
#X connect 71 0 54 0;
#X connect 73 0 6 0;
#X connect 73 0 24 0;
#X connect 73 0 42 0;
#X connect 73 0 60 0;
#X connect 73 0 78 0;
#X connect 73 0 96 0;
#X connect 73 0 114 0;
#X connect 73 0 132 0;
#X connect 73 0 150 0;
#X connect 73 0 168 0;
#X connect 73 0 186 0;
#X connect 73 0 204 0;
#X connect 73 0 222 0;
#X connect 73 0 240 0;
#X connect 73 0 258 0;
#X connect 73 0 276 0;
#X connect 73 0 293 0;
#X connect 73 0 310 0;
#X connect 73 0 327 0;
#X connect 73 0 344 0;
#X connect 73 0 361 0;
#X connect 73 0 378 0;
#X connect 73 0 395 0;
#X connect 73 0 412 0;
#X connect 73 0 429 0;
#X connect 73 0 446 0;
#X connect 74 0 72 0;
#X connect 75 0 72 0;
#X connect 76 0 72 0;
#X connect 77 0 72 0;
#X connect 78 0 72 0;
#X connect 79 0 72 0;
#X connect 80 0 72 0;
#X connect 81 0 72 0;
#X connect 82 0 72 0;
#X connect 83 0 72 0;
#X connect 84 0 72 0;
#X connect 85 0 72 0;
#X connect 86 0 72 0;
#X connect 87 0 72 0;
#X connect 88 0 72 0;
#X connect 89 0 72 0;
#X connect 91 0 7 0;
#X connect 91 0 25 0;
#X connect 91 0 43 0;
#X connect 91 0 61 0;
#X connect 91 0 79 0;
#X connect 91 0 97 0;
#X connect 91 0 115 0;
#X connect 91 0 133 0;
#X connect 91 0 151 0;
#X connect 91 0 169 0;
#X connect 91 0 187 0;
#X connect 91 0 205 0;
#X connect 91 0 223 0;
#X connect 91 0 241 0;
#X connect 91 0 259 0;
#X connect 91 0 277 0;
#X connect 91 0 294 0;
#X connect 91 0 311 0;
#X connect 91 0 328 0;
#X connect 91 0 345 0;
#X connect 91 0 362 0;
#X connect 91 0 379 0;
#X connect 91 0 396 0;
#X connect 91 0 413 0;
#X connect 91 0 430 0;
#X connect 91 0 447 0;
#X connect 92 0 90 0;
#X connect 93 0 90 0;
#X connect 94 0 90 0;
#X connect 95 0 90 0;
#X connect 96 0 90 0;
#X connect 97 0 90 0;
#X connect 98 0 90 0;
#X connect 99 0 90 0;
#X connect 100 0 90 0;
#X connect 101 0 90 0;
#X connect 102 0 90 0;
#X connect 103 0 90 0;
#X connect 104 0 90 0;
#X connect 105 0 90 0;
#X connect 106 0 90 0;
#X connect 107 0 90 0;
#X connect 109 0 8 0;
#X connect 109 0 26 0;
#X connect 109 0 44 0;
#X connect 109 0 62 0;
#X connect 109 0 80 0;
#X connect 109 0 98 0;
#X connect 109 0 116 0;
#X connect 109 0 134 0;
#X connect 109 0 152 0;
#X connect 109 0 170 0;
#X connect 109 0 188 0;
#X connect 109 0 206 0;
#X connect 109 0 224 0;
#X connect 109 0 242 0;
#X connect 109 0 260 0;
#X connect 109 0 278 0;
#X connect 109 0 295 0;
#X connect 109 0 312 0;
#X connect 109 0 329 0;
#X connect 109 0 346 0;
#X connect 109 0 363 0;
#X connect 109 0 380 0;
#X connect 109 0 397 0;
#X connect 109 0 414 0;
#X connect 109 0 431 0;
#X connect 109 0 448 0;
#X connect 110 0 108 0;
#X connect 111 0 108 0;
#X connect 112 0 108 0;
#X connect 113 0 108 0;
#X connect 114 0 108 0;
#X connect 115 0 108 0;
#X connect 116 0 108 0;
#X connect 117 0 108 0;
#X connect 118 0 108 0;
#X connect 119 0 108 0;
#X connect 120 0 108 0;
#X connect 121 0 108 0;
#X connect 122 0 108 0;
#X connect 123 0 108 0;
#X connect 124 0 108 0;
#X connect 125 0 108 0;
#X connect 127 0 9 0;
#X connect 127 0 27 0;
#X connect 127 0 45 0;
#X connect 127 0 63 0;
#X connect 127 0 81 0;
#X connect 127 0 99 0;
#X connect 127 0 117 0;
#X connect 127 0 135 0;
#X connect 127 0 153 0;
#X connect 127 0 171 0;
#X connect 127 0 189 0;
#X connect 127 0 207 0;
#X connect 127 0 225 0;
#X connect 127 0 243 0;
#X connect 127 0 261 0;
#X connect 127 0 279 0;
#X connect 127 0 296 0;
#X connect 127 0 313 0;
#X connect 127 0 330 0;
#X connect 127 0 347 0;
#X connect 127 0 364 0;
#X connect 127 0 381 0;
#X connect 127 0 398 0;
#X connect 127 0 415 0;
#X connect 127 0 432 0;
#X connect 127 0 449 0;
#X connect 128 0 126 0;
#X connect 129 0 126 0;
#X connect 130 0 126 0;
#X connect 131 0 126 0;
#X connect 132 0 126 0;
#X connect 133 0 126 0;
#X connect 134 0 126 0;
#X connect 135 0 126 0;
#X connect 136 0 126 0;
#X connect 137 0 126 0;
#X connect 138 0 126 0;
#X connect 139 0 126 0;
#X connect 140 0 126 0;
#X connect 141 0 126 0;
#X connect 142 0 126 0;
#X connect 143 0 126 0;
#X connect 145 0 10 0;
#X connect 145 0 28 0;
#X connect 145 0 46 0;
#X connect 145 0 64 0;
#X connect 145 0 82 0;
#X connect 145 0 100 0;
#X connect 145 0 118 0;
#X connect 145 0 136 0;
#X connect 145 0 154 0;
#X connect 145 0 172 0;
#X connect 145 0 190 0;
#X connect 145 0 208 0;
#X connect 145 0 226 0;
#X connect 145 0 244 0;
#X connect 145 0 262 0;
#X connect 145 0 280 0;
#X connect 145 0 297 0;
#X connect 145 0 314 0;
#X connect 145 0 331 0;
#X connect 145 0 348 0;
#X connect 145 0 365 0;
#X connect 145 0 382 0;
#X connect 145 0 399 0;
#X connect 145 0 416 0;
#X connect 145 0 433 0;
#X connect 145 0 450 0;
#X connect 146 0 144 0;
#X connect 147 0 144 0;
#X connect 148 0 144 0;
#X connect 149 0 144 0;
#X connect 150 0 144 0;
#X connect 151 0 144 0;
#X connect 152 0 144 0;
#X connect 153 0 144 0;
#X connect 154 0 144 0;
#X connect 155 0 144 0;
#X connect 156 0 144 0;
#X connect 157 0 144 0;
#X connect 158 0 144 0;
#X connect 159 0 144 0;
#X connect 160 0 144 0;
#X connect 161 0 144 0;
#X connect 163 0 11 0;
#X connect 163 0 29 0;
#X connect 163 0 47 0;
#X connect 163 0 65 0;
#X connect 163 0 83 0;
#X connect 163 0 101 0;
#X connect 163 0 119 0;
#X connect 163 0 137 0;
#X connect 163 0 155 0;
#X connect 163 0 173 0;
#X connect 163 0 191 0;
#X connect 163 0 209 0;
#X connect 163 0 227 0;
#X connect 163 0 245 0;
#X connect 163 0 263 0;
#X connect 163 0 281 0;
#X connect 163 0 298 0;
#X connect 163 0 315 0;
#X connect 163 0 332 0;
#X connect 163 0 349 0;
#X connect 163 0 366 0;
#X connect 163 0 383 0;
#X connect 163 0 400 0;
#X connect 163 0 417 0;
#X connect 163 0 434 0;
#X connect 163 0 451 0;
#X connect 164 0 162 0;
#X connect 165 0 162 0;
#X connect 166 0 162 0;
#X connect 167 0 162 0;
#X connect 168 0 162 0;
#X connect 169 0 162 0;
#X connect 170 0 162 0;
#X connect 171 0 162 0;
#X connect 172 0 162 0;
#X connect 173 0 162 0;
#X connect 174 0 162 0;
#X connect 175 0 162 0;
#X connect 176 0 162 0;
#X connect 177 0 162 0;
#X connect 178 0 162 0;
#X connect 179 0 162 0;
#X connect 181 0 12 0;
#X connect 181 0 30 0;
#X connect 181 0 48 0;
#X connect 181 0 66 0;
#X connect 181 0 84 0;
#X connect 181 0 102 0;
#X connect 181 0 120 0;
#X connect 181 0 138 0;
#X connect 181 0 156 0;
#X connect 181 0 174 0;
#X connect 181 0 192 0;
#X connect 181 0 210 0;
#X connect 181 0 228 0;
#X connect 181 0 246 0;
#X connect 181 0 264 0;
#X connect 181 0 282 0;
#X connect 181 0 299 0;
#X connect 181 0 316 0;
#X connect 181 0 333 0;
#X connect 181 0 350 0;
#X connect 181 0 367 0;
#X connect 181 0 384 0;
#X connect 181 0 401 0;
#X connect 181 0 418 0;
#X connect 181 0 435 0;
#X connect 181 0 452 0;
#X connect 182 0 180 0;
#X connect 183 0 180 0;
#X connect 184 0 180 0;
#X connect 185 0 180 0;
#X connect 186 0 180 0;
#X connect 187 0 180 0;
#X connect 188 0 180 0;
#X connect 189 0 180 0;
#X connect 190 0 180 0;
#X connect 191 0 180 0;
#X connect 192 0 180 0;
#X connect 193 0 180 0;
#X connect 194 0 180 0;
#X connect 195 0 180 0;
#X connect 196 0 180 0;
#X connect 197 0 180 0;
#X connect 199 0 13 0;
#X connect 199 0 31 0;
#X connect 199 0 49 0;
#X connect 199 0 67 0;
#X connect 199 0 85 0;
#X connect 199 0 103 0;
#X connect 199 0 121 0;
#X connect 199 0 139 0;
#X connect 199 0 157 0;
#X connect 199 0 175 0;
#X connect 199 0 193 0;
#X connect 199 0 211 0;
#X connect 199 0 229 0;
#X connect 199 0 247 0;
#X connect 199 0 265 0;
#X connect 199 0 283 0;
#X connect 199 0 300 0;
#X connect 199 0 317 0;
#X connect 199 0 334 0;
#X connect 199 0 351 0;
#X connect 199 0 368 0;
#X connect 199 0 385 0;
#X connect 199 0 402 0;
#X connect 199 0 419 0;
#X connect 199 0 436 0;
#X connect 199 0 453 0;
#X connect 200 0 198 0;
#X connect 201 0 198 0;
#X connect 202 0 198 0;
#X connect 203 0 198 0;
#X connect 204 0 198 0;
#X connect 205 0 198 0;
#X connect 206 0 198 0;
#X connect 207 0 198 0;
#X connect 208 0 198 0;
#X connect 209 0 198 0;
#X connect 210 0 198 0;
#X connect 211 0 198 0;
#X connect 212 0 198 0;
#X connect 213 0 198 0;
#X connect 214 0 198 0;
#X connect 215 0 198 0;
#X connect 217 0 14 0;
#X connect 217 0 32 0;
#X connect 217 0 50 0;
#X connect 217 0 68 0;
#X connect 217 0 86 0;
#X connect 217 0 104 0;
#X connect 217 0 122 0;
#X connect 217 0 140 0;
#X connect 217 0 158 0;
#X connect 217 0 176 0;
#X connect 217 0 194 0;
#X connect 217 0 212 0;
#X connect 217 0 230 0;
#X connect 217 0 248 0;
#X connect 217 0 266 0;
#X connect 217 0 284 0;
#X connect 217 0 301 0;
#X connect 217 0 318 0;
#X connect 217 0 335 0;
#X connect 217 0 352 0;
#X connect 217 0 369 0;
#X connect 217 0 386 0;
#X connect 217 0 403 0;
#X connect 217 0 420 0;
#X connect 217 0 437 0;
#X connect 217 0 454 0;
#X connect 218 0 216 0;
#X connect 219 0 216 0;
#X connect 220 0 216 0;
#X connect 221 0 216 0;
#X connect 222 0 216 0;
#X connect 223 0 216 0;
#X connect 224 0 216 0;
#X connect 225 0 216 0;
#X connect 226 0 216 0;
#X connect 227 0 216 0;
#X connect 228 0 216 0;
#X connect 229 0 216 0;
#X connect 230 0 216 0;
#X connect 231 0 216 0;
#X connect 232 0 216 0;
#X connect 233 0 216 0;
#X connect 235 0 15 0;
#X connect 235 0 33 0;
#X connect 235 0 51 0;
#X connect 235 0 69 0;
#X connect 235 0 87 0;
#X connect 235 0 105 0;
#X connect 235 0 123 0;
#X connect 235 0 141 0;
#X connect 235 0 159 0;
#X connect 235 0 177 0;
#X connect 235 0 195 0;
#X connect 235 0 213 0;
#X connect 235 0 231 0;
#X connect 235 0 249 0;
#X connect 235 0 267 0;
#X connect 235 0 285 0;
#X connect 235 0 302 0;
#X connect 235 0 319 0;
#X connect 235 0 336 0;
#X connect 235 0 353 0;
#X connect 235 0 370 0;
#X connect 235 0 387 0;
#X connect 235 0 404 0;
#X connect 235 0 421 0;
#X connect 235 0 438 0;
#X connect 235 0 455 0;
#X connect 236 0 234 0;
#X connect 237 0 234 0;
#X connect 238 0 234 0;
#X connect 239 0 234 0;
#X connect 240 0 234 0;
#X connect 241 0 234 0;
#X connect 242 0 234 0;
#X connect 243 0 234 0;
#X connect 244 0 234 0;
#X connect 245 0 234 0;
#X connect 246 0 234 0;
#X connect 247 0 234 0;
#X connect 248 0 234 0;
#X connect 249 0 234 0;
#X connect 250 0 234 0;
#X connect 251 0 234 0;
#X connect 253 0 16 0;
#X connect 253 0 34 0;
#X connect 253 0 52 0;
#X connect 253 0 70 0;
#X connect 253 0 88 0;
#X connect 253 0 106 0;
#X connect 253 0 124 0;
#X connect 253 0 142 0;
#X connect 253 0 160 0;
#X connect 253 0 178 0;
#X connect 253 0 196 0;
#X connect 253 0 214 0;
#X connect 253 0 232 0;
#X connect 253 0 250 0;
#X connect 253 0 268 0;
#X connect 253 0 286 0;
#X connect 253 0 303 0;
#X connect 253 0 320 0;
#X connect 253 0 337 0;
#X connect 253 0 354 0;
#X connect 253 0 371 0;
#X connect 253 0 388 0;
#X connect 253 0 405 0;
#X connect 253 0 422 0;
#X connect 253 0 439 0;
#X connect 253 0 456 0;
#X connect 254 0 252 0;
#X connect 255 0 252 0;
#X connect 256 0 252 0;
#X connect 257 0 252 0;
#X connect 258 0 252 0;
#X connect 259 0 252 0;
#X connect 260 0 252 0;
#X connect 261 0 252 0;
#X connect 262 0 252 0;
#X connect 263 0 252 0;
#X connect 264 0 252 0;
#X connect 265 0 252 0;
#X connect 266 0 252 0;
#X connect 267 0 252 0;
#X connect 268 0 252 0;
#X connect 269 0 252 0;
#X connect 271 0 17 0;
#X connect 271 0 35 0;
#X connect 271 0 53 0;
#X connect 271 0 71 0;
#X connect 271 0 89 0;
#X connect 271 0 107 0;
#X connect 271 0 125 0;
#X connect 271 0 143 0;
#X connect 271 0 161 0;
#X connect 271 0 179 0;
#X connect 271 0 197 0;
#X connect 271 0 215 0;
#X connect 271 0 233 0;
#X connect 271 0 251 0;
#X connect 271 0 269 0;
#X connect 271 0 287 0;
#X connect 271 0 304 0;
#X connect 271 0 321 0;
#X connect 271 0 338 0;
#X connect 271 0 355 0;
#X connect 271 0 372 0;
#X connect 271 0 389 0;
#X connect 271 0 406 0;
#X connect 271 0 423 0;
#X connect 271 0 440 0;
#X connect 271 0 457 0;
#X connect 272 0 270 0;
#X connect 273 0 270 0;
#X connect 274 0 270 0;
#X connect 275 0 270 0;
#X connect 276 0 270 0;
#X connect 277 0 270 0;
#X connect 278 0 270 0;
#X connect 279 0 270 0;
#X connect 280 0 270 0;
#X connect 281 0 270 0;
#X connect 282 0 270 0;
#X connect 283 0 270 0;
#X connect 284 0 270 0;
#X connect 285 0 270 0;
#X connect 286 0 270 0;
#X connect 287 0 270 0;
#X connect 289 0 288 0;
#X connect 290 0 288 0;
#X connect 291 0 288 0;
#X connect 292 0 288 0;
#X connect 293 0 288 0;
#X connect 294 0 288 0;
#X connect 295 0 288 0;
#X connect 296 0 288 0;
#X connect 297 0 288 0;
#X connect 298 0 288 0;
#X connect 299 0 288 0;
#X connect 300 0 288 0;
#X connect 301 0 288 0;
#X connect 302 0 288 0;
#X connect 303 0 288 0;
#X connect 304 0 288 0;
#X connect 306 0 305 0;
#X connect 307 0 305 0;
#X connect 308 0 305 0;
#X connect 309 0 305 0;
#X connect 310 0 305 0;
#X connect 311 0 305 0;
#X connect 312 0 305 0;
#X connect 313 0 305 0;
#X connect 314 0 305 0;
#X connect 315 0 305 0;
#X connect 316 0 305 0;
#X connect 317 0 305 0;
#X connect 318 0 305 0;
#X connect 319 0 305 0;
#X connect 320 0 305 0;
#X connect 321 0 305 0;
#X connect 323 0 322 0;
#X connect 324 0 322 0;
#X connect 325 0 322 0;
#X connect 326 0 322 0;
#X connect 327 0 322 0;
#X connect 328 0 322 0;
#X connect 329 0 322 0;
#X connect 330 0 322 0;
#X connect 331 0 322 0;
#X connect 332 0 322 0;
#X connect 333 0 322 0;
#X connect 334 0 322 0;
#X connect 335 0 322 0;
#X connect 336 0 322 0;
#X connect 337 0 322 0;
#X connect 338 0 322 0;
#X connect 340 0 339 0;
#X connect 341 0 339 0;
#X connect 342 0 339 0;
#X connect 343 0 339 0;
#X connect 344 0 339 0;
#X connect 345 0 339 0;
#X connect 346 0 339 0;
#X connect 347 0 339 0;
#X connect 348 0 339 0;
#X connect 349 0 339 0;
#X connect 350 0 339 0;
#X connect 351 0 339 0;
#X connect 352 0 339 0;
#X connect 353 0 339 0;
#X connect 354 0 339 0;
#X connect 355 0 339 0;
#X connect 357 0 356 0;
#X connect 358 0 356 0;
#X connect 359 0 356 0;
#X connect 360 0 356 0;
#X connect 361 0 356 0;
#X connect 362 0 356 0;
#X connect 363 0 356 0;
#X connect 364 0 356 0;
#X connect 365 0 356 0;
#X connect 366 0 356 0;
#X connect 367 0 356 0;
#X connect 368 0 356 0;
#X connect 369 0 356 0;
#X connect 370 0 356 0;
#X connect 371 0 356 0;
#X connect 372 0 356 0;
#X connect 374 0 373 0;
#X connect 375 0 373 0;
#X connect 376 0 373 0;
#X connect 377 0 373 0;
#X connect 378 0 373 0;
#X connect 379 0 373 0;
#X connect 380 0 373 0;
#X connect 381 0 373 0;
#X connect 382 0 373 0;
#X connect 383 0 373 0;
#X connect 384 0 373 0;
#X connect 385 0 373 0;
#X connect 386 0 373 0;
#X connect 387 0 373 0;
#X connect 388 0 373 0;
#X connect 389 0 373 0;
#X connect 391 0 390 0;
#X connect 392 0 390 0;
#X connect 393 0 390 0;
#X connect 394 0 390 0;
#X connect 395 0 390 0;
#X connect 396 0 390 0;
#X connect 397 0 390 0;
#X connect 398 0 390 0;
#X connect 399 0 390 0;
#X connect 400 0 390 0;
#X connect 401 0 390 0;
#X connect 402 0 390 0;
#X connect 403 0 390 0;
#X connect 404 0 390 0;
#X connect 405 0 390 0;
#X connect 406 0 390 0;
#X connect 408 0 407 0;
#X connect 409 0 407 0;
#X connect 410 0 407 0;
#X connect 411 0 407 0;
#X connect 412 0 407 0;
#X connect 413 0 407 0;
#X connect 414 0 407 0;
#X connect 415 0 407 0;
#X connect 416 0 407 0;
#X connect 417 0 407 0;
#X connect 418 0 407 0;
#X connect 419 0 407 0;
#X connect 420 0 407 0;
#X connect 421 0 407 0;
#X connect 422 0 407 0;
#X connect 423 0 407 0;
#X connect 425 0 424 0;
#X connect 426 0 424 0;
#X connect 427 0 424 0;
#X connect 428 0 424 0;
#X connect 429 0 424 0;
#X connect 430 0 424 0;
#X connect 431 0 424 0;
#X connect 432 0 424 0;
#X connect 433 0 424 0;
#X connect 434 0 424 0;
#X connect 435 0 424 0;
#X connect 436 0 424 0;
#X connect 437 0 424 0;
#X connect 438 0 424 0;
#X connect 439 0 424 0;
#X connect 440 0 424 0;
#X connect 442 0 441 0;
#X connect 443 0 441 0;
#X connect 444 0 441 0;
#X connect 445 0 441 0;
#X connect 446 0 441 0;
#X connect 447 0 441 0;
#X connect 448 0 441 0;
#X connect 449 0 441 0;
#X connect 450 0 441 0;
#X connect 451 0 441 0;
#X connect 452 0 441 0;
#X connect 453 0 441 0;
#X connect 454 0 441 0;
#X connect 455 0 441 0;
#X connect 456 0 441 0;
#X connect 457 0 441 0;
#X coords 0 627 1 626 40 40 0;
