#N canvas 638 369 450 300 10;
#X obj 96 335 samphold~, f 33;
#X obj 96 253 inlet~;
#X obj 291 253 inlet~;
#X obj 96 400 outlet~;
#X floatatom 210 124 5 0 1 0 - - -, f 5;
#X obj 351 138 s \$0_att_signal;
#X obj 158 27 loadbang;
#N canvas 196 152 219 292 attenuator 0;
#X obj 45 47 inlet~;
#X obj 45 188 outlet~;
#X obj 45 148 *~ 1;
#X obj 115 107 line;
#X msg 115 77 \$1 100;
#X obj 115 47 inlet;
#X connect 0 0 2 0;
#X connect 2 0 1 0;
#X connect 3 0 2 1;
#X connect 4 0 3 0;
#X connect 5 0 4 0;
#X restore 96 293 pd attenuator;
#X msg 158 57 1;
#X obj 171 253 r \$0_att_signal;
#X obj 29 107 r X_SH_att_signal;
#X connect 0 0 3 0;
#X connect 1 0 7 0;
#X connect 2 0 0 1;
#X connect 4 0 5 0;
#X connect 6 0 8 0;
#X connect 7 0 0 0;
#X connect 8 0 4 0;
#X connect 9 0 7 1;
#X connect 10 0 4 0;
#X coords 0 -1 1 1 120 120 1 200 100;
