#N canvas 184 23 461 400 10;
#X obj 26 283 inlet~;
#X obj 26 637 outlet~;
#X obj 26 590 *~;
#X obj 87 283 inlet~;
#X obj 210 166 tgl 15 0 empty empty empty 17 7 0 10 -262144 -1 -1 0
1;
#X obj 214 361 clip~ 0 1;
#X obj 87 462 *~;
#X obj 214 462 *~;
#X obj 102 418 == 0;
#X obj 158 27 loadbang;
#X msg 158 57 0;
#X obj 341 181 s \$0_clip;
#X obj 102 385 r \$0_clip;
#X obj 229 385 r \$0_clip;
#N canvas 196 152 219 292 attenuator 0;
#X obj 45 47 inlet~;
#X obj 45 188 outlet~;
#X obj 45 148 *~ 1;
#X obj 115 107 line;
#X msg 115 77 \$1 100;
#X obj 115 47 inlet;
#X connect 0 0 2 0;
#X connect 2 0 1 0;
#X connect 3 0 2 1;
#X connect 4 0 3 0;
#X connect 5 0 4 0;
#X restore 87 323 pd attenuator;
#X floatatom 278 115 5 0 1 0 - - -, f 5;
#X msg 198 57 1;
#X obj 342 129 s \$0_att_control;
#X obj 162 283 r \$0_att_control;
#X obj 87 560 +~;
#X floatatom 210 145 5 0 1 0 - - -, f 5;
#X obj 343 159 s \$0_base;
#X obj 162 523 r \$0_base;
#X obj 41 98 r X_VCA2_att_control;
#X obj 41 128 r X_VCA2_base;
#X obj 41 149 r X_VCA2_clip;
#X connect 0 0 2 0;
#X connect 2 0 1 0;
#X connect 3 0 14 0;
#X connect 4 0 11 0;
#X connect 5 0 7 0;
#X connect 6 0 19 0;
#X connect 7 0 19 0;
#X connect 8 0 6 1;
#X connect 9 0 10 0;
#X connect 9 0 16 0;
#X connect 10 0 4 0;
#X connect 12 0 8 0;
#X connect 13 0 7 1;
#X connect 14 0 6 0;
#X connect 14 0 5 0;
#X connect 15 0 17 0;
#X connect 16 0 15 0;
#X connect 18 0 14 1;
#X connect 19 0 2 1;
#X connect 20 0 21 0;
#X connect 22 0 19 1;
#X connect 23 0 15 0;
#X connect 24 0 20 0;
#X connect 25 0 4 0;
#X coords 0 -1 1 1 120 120 1 200 100;
