#N canvas 0 22 1280 752 10;
#X obj 22 796 osc~;
#X obj 150 796 phasor~;
#X obj 535 846 expr~ $v1 > $v2;
#X obj 410 905 abs~;
#X obj 150 840 *~ 2;
#X obj 150 868 -~ 1;
#X obj 410 935 *~ 2;
#X obj 410 963 -~ 1;
#X obj 410 148 hradio 15 1 0 5 empty empty empty 0 -8 0 10 -262144
-1 -1 0;
#X floatatom 410 196 5 0 100 0 - - -, f 5;
#X obj 22 749 r~ \$0_freq;
#X obj 22 625 s~ \$0_freq;
#X obj 317 18 loadbang;
#X msg 350 68 0;
#X msg 317 68 50;
#X obj 126 585 expr~ $v1 != 0;
#X obj 126 625 s~ \$0_gate;
#X obj 21 1154 *~;
#X obj 410 1111 r~ \$0_gate;
#X obj 536 625 s~ \$0_width;
#X obj 706 493 sig~;
#X obj 536 313 inlet~;
#X obj 536 550 +~;
#X obj 622 818 r~ \$0_width;
#X obj 706 403 / 100;
#X obj 535 931 *~ 2;
#X obj 535 959 -~ 1;
#X obj 536 586 clip~ 0 1;
#N canvas 0 22 450 300 vol 0;
#X obj 122 28 inlet~;
#X obj 122 202 *~;
#X obj 203 166 line~;
#X msg 203 118 0 100;
#X obj 122 265 outlet~;
#X obj 203 28 inlet;
#X obj 203 57 select 0;
#X msg 256 90 bang;
#X msg 256 118 1 100;
#X connect 0 0 1 0;
#X connect 1 0 4 0;
#X connect 2 0 1 1;
#X connect 3 0 2 0;
#X connect 5 0 6 0;
#X connect 6 0 3 0;
#X connect 6 1 7 0;
#X connect 7 0 8 0;
#X connect 8 0 2 0;
#X restore 22 1064 pd vol;
#N canvas 0 22 450 300 vol 0;
#X obj 122 28 inlet~;
#X obj 122 202 *~;
#X obj 203 166 line~;
#X msg 203 118 0 100;
#X obj 122 265 outlet~;
#X obj 203 28 inlet;
#X obj 203 57 select 0;
#X msg 256 90 bang;
#X msg 256 118 1 100;
#X connect 0 0 1 0;
#X connect 1 0 4 0;
#X connect 2 0 1 1;
#X connect 3 0 2 0;
#X connect 5 0 6 0;
#X connect 6 0 3 0;
#X connect 6 1 7 0;
#X connect 7 0 8 0;
#X connect 8 0 2 0;
#X restore 150 1064 pd vol;
#N canvas 0 22 450 300 vol 0;
#X obj 122 28 inlet~;
#X obj 122 202 *~;
#X obj 203 166 line~;
#X msg 203 118 0 100;
#X obj 122 265 outlet~;
#X obj 203 28 inlet;
#X obj 203 57 select 0;
#X msg 256 90 bang;
#X msg 256 118 1 100;
#X connect 0 0 1 0;
#X connect 1 0 4 0;
#X connect 2 0 1 1;
#X connect 3 0 2 0;
#X connect 5 0 6 0;
#X connect 6 0 3 0;
#X connect 6 1 7 0;
#X connect 7 0 8 0;
#X connect 8 0 2 0;
#X restore 410 1064 pd vol;
#N canvas 0 22 450 300 vol 0;
#X obj 122 28 inlet~;
#X obj 122 202 *~;
#X obj 203 166 line~;
#X msg 203 118 0 100;
#X obj 122 265 outlet~;
#X obj 203 28 inlet;
#X obj 203 57 select 0;
#X msg 256 90 bang;
#X msg 256 118 1 100;
#X connect 0 0 1 0;
#X connect 1 0 4 0;
#X connect 2 0 1 1;
#X connect 3 0 2 0;
#X connect 5 0 6 0;
#X connect 6 0 3 0;
#X connect 6 1 7 0;
#X connect 7 0 8 0;
#X connect 8 0 2 0;
#X restore 535 1064 pd vol;
#X obj 536 403 /~ 2;
#X obj 55 1037 == 0;
#X obj 183 1038 == 1;
#X obj 551 163 s \$0_shape;
#X obj 55 1010 r \$0_shape;
#X obj 183 1010 r \$0_shape;
#X obj 443 1011 r \$0_shape;
#X obj 568 1011 r \$0_shape;
#X obj 551 187 s \$0_freq;
#X obj 433 403 sig~;
#X obj 22 313 inlet~;
#X obj 22 403 *~ 60;
#X obj 22 511 +~;
#X obj 433 444 ftom~;
#X obj 22 548 mtof~;
#X obj 551 210 s \$0_pw;
#X obj 706 313 r \$0_pw;
#X obj 433 313 r \$0_freq;
#X obj 21 1291 outlet~;
#X obj 706 463 line;
#X msg 706 433 \$1 10;
#X floatatom 410 124 5 0 1 0 - - -, f 5;
#N canvas 196 152 219 292 attenuator 0;
#X obj 45 47 inlet~;
#X obj 45 188 outlet~;
#X obj 45 148 *~ 1;
#X obj 115 107 line;
#X msg 115 77 \$1 100;
#X obj 115 47 inlet;
#X connect 0 0 2 0;
#X connect 2 0 1 0;
#X connect 3 0 2 1;
#X connect 4 0 3 0;
#X connect 5 0 4 0;
#X restore 22 363 pd attenuator;
#N canvas 196 152 219 292 attenuator 0;
#X obj 45 47 inlet~;
#X obj 45 188 outlet~;
#X obj 45 148 *~ 1;
#X obj 115 107 line;
#X msg 115 77 \$1 100;
#X obj 115 47 inlet;
#X connect 0 0 2 0;
#X connect 2 0 1 0;
#X connect 3 0 2 1;
#X connect 4 0 3 0;
#X connect 5 0 4 0;
#X restore 536 363 pd attenuator;
#X floatatom 480 124 5 0 1 0 - - -, f 5;
#X msg 390 68 1;
#X obj 751 138 s \$0_att_pw;
#X obj 611 313 r \$0_att_pw;
#N canvas 392 237 579 497 antialias 0;
#X obj 22 200 *~ 0.125;
#X obj 22 223 rzero~ -1;
#X obj 22 246 rzero~ -1;
#X obj 22 269 rzero~ -1;
#X obj 123 72 block~ 1024 1 16;
#X obj 21 97 rpole~ 0.87467;
#X obj 21 74 *~ 0.12532;
#X obj 21 120 *~ 0.01668;
#X obj 21 143 cpole~ 0.9293 0.10812;
#X obj 21 169 cpole~ 0.9293 -0.10812;
#X obj 21 23 inlet~;
#X obj 22 329 outlet~;
#X connect 0 0 1 0;
#X connect 1 0 2 0;
#X connect 2 0 3 0;
#X connect 3 0 11 0;
#X connect 5 0 7 0;
#X connect 6 0 5 0;
#X connect 7 0 8 0;
#X connect 8 0 9 0;
#X connect 8 1 9 1;
#X connect 9 0 0 0;
#X connect 10 0 6 0;
#X restore 21 1228 pd antialias;
#X obj 279 107 r X_VCO2_att_pw;
#X obj 159 131 r X_VCO2_shape;
#X obj 159 156 r X_VCO2_freq;
#X obj 159 179 r X_VCO2_pw;
#N canvas 385 226 651 418 freq_offset 0;
#X floatatom 200 100 8 0 20000 0 - - -, f 8;
#X obj 268 244 mtof;
#X floatatom 268 100 5 0 0 0 - - -, f 5;
#X obj 268 214 + 60;
#X obj 212 184 ftom;
#X msg 212 244 set \$1;
#X obj 212 214 - 60;
#X obj 283 138 wrap;
#X obj 268 184 -;
#X msg 346 147 set \$1;
#X obj 200 335 outlet;
#X obj 393 13 loadbang;
#X msg 393 45 0;
#X obj 200 64 inlet;
#X obj 268 64 inlet;
#X connect 0 0 4 0;
#X connect 0 0 10 0;
#X connect 1 0 0 0;
#X connect 2 0 7 0;
#X connect 2 0 8 0;
#X connect 3 0 1 0;
#X connect 4 0 6 0;
#X connect 5 0 2 0;
#X connect 6 0 5 0;
#X connect 7 0 8 1;
#X connect 8 0 3 0;
#X connect 8 0 9 0;
#X connect 9 0 2 0;
#X connect 11 0 12 0;
#X connect 12 0 2 0;
#X connect 13 0 0 0;
#X connect 14 0 2 0;
#X coords 0 -1 1 1 100 14 2 200 100;
#X restore 410 173 pd freq_offset;
#X obj 262 156 r X_VCO2_offset;
#X obj 232 313 inlet~;
#N canvas 196 152 219 292 attenuator 0;
#X obj 45 47 inlet~;
#X obj 45 188 outlet~;
#X obj 45 148 *~ 1;
#X obj 115 107 line;
#X msg 115 77 \$1 100;
#X obj 115 47 inlet;
#X connect 0 0 2 0;
#X connect 2 0 1 0;
#X connect 3 0 2 1;
#X connect 4 0 3 0;
#X connect 5 0 4 0;
#X restore 232 363 pd attenuator;
#X floatatom 445 124 5 0 1 0 - - -, f 5;
#X obj 39 107 r X_VCO2_att_freq0;
#X obj 159 107 r X_VCO2_att_freq1;
#X obj 551 138 s \$0_att_freq0;
#X obj 651 138 s \$0_att_freq1;
#X obj 97 313 r \$0_att_freq0;
#X obj 307 313 r \$0_att_freq1;
#N canvas 0 22 450 300 vol 0;
#X obj 122 28 inlet~;
#X obj 122 202 *~;
#X obj 203 166 line~;
#X msg 203 118 0 100;
#X obj 122 265 outlet~;
#X obj 203 28 inlet;
#X obj 203 57 select 0;
#X msg 256 90 bang;
#X msg 256 118 1 100;
#X connect 0 0 1 0;
#X connect 1 0 4 0;
#X connect 2 0 1 1;
#X connect 3 0 2 0;
#X connect 5 0 6 0;
#X connect 6 0 3 0;
#X connect 6 1 7 0;
#X connect 7 0 8 0;
#X connect 8 0 2 0;
#X restore 280 1064 pd vol;
#X obj 313 1010 r \$0_shape;
#X obj 280 935 *~ -1;
#X obj 313 1038 == 2;
#X obj 443 1038 == 3;
#X obj 568 1038 == 4;
#X connect 0 0 28 0;
#X connect 1 0 4 0;
#X connect 1 0 2 0;
#X connect 2 0 25 0;
#X connect 3 0 6 0;
#X connect 4 0 5 0;
#X connect 5 0 29 0;
#X connect 5 0 3 0;
#X connect 5 0 78 0;
#X connect 6 0 7 0;
#X connect 7 0 30 0;
#X connect 8 0 35 0;
#X connect 9 0 47 0;
#X connect 10 0 0 0;
#X connect 10 0 1 0;
#X connect 12 0 13 0;
#X connect 12 0 14 0;
#X connect 12 0 57 0;
#X connect 13 0 8 0;
#X connect 14 0 9 0;
#X connect 15 0 16 0;
#X connect 17 0 60 0;
#X connect 18 0 17 1;
#X connect 20 0 22 1;
#X connect 21 0 55 0;
#X connect 22 0 27 0;
#X connect 23 0 2 1;
#X connect 24 0 52 0;
#X connect 25 0 26 0;
#X connect 26 0 31 0;
#X connect 27 0 19 0;
#X connect 28 0 17 0;
#X connect 29 0 17 0;
#X connect 30 0 17 0;
#X connect 31 0 17 0;
#X connect 32 0 22 0;
#X connect 33 0 28 1;
#X connect 34 0 29 1;
#X connect 36 0 33 0;
#X connect 37 0 34 0;
#X connect 38 0 80 0;
#X connect 39 0 81 0;
#X connect 41 0 45 0;
#X connect 42 0 54 0;
#X connect 43 0 44 0;
#X connect 44 0 46 0;
#X connect 45 0 44 1;
#X connect 46 0 11 0;
#X connect 46 0 15 0;
#X connect 48 0 24 0;
#X connect 49 0 41 0;
#X connect 51 0 20 0;
#X connect 52 0 51 0;
#X connect 53 0 72 0;
#X connect 54 0 43 0;
#X connect 55 0 32 0;
#X connect 56 0 58 0;
#X connect 57 0 53 0;
#X connect 57 0 56 0;
#X connect 57 0 69 0;
#X connect 59 0 55 1;
#X connect 60 0 50 0;
#X connect 61 0 56 0;
#X connect 62 0 8 0;
#X connect 63 0 65 0;
#X connect 64 0 9 0;
#X connect 65 0 40 0;
#X connect 66 0 65 1;
#X connect 67 0 68 0;
#X connect 68 0 43 0;
#X connect 69 0 73 0;
#X connect 70 0 53 0;
#X connect 71 0 69 0;
#X connect 74 0 54 1;
#X connect 75 0 68 1;
#X connect 76 0 17 0;
#X connect 77 0 79 0;
#X connect 78 0 76 0;
#X connect 79 0 76 1;
#X connect 80 0 30 1;
#X connect 81 0 31 1;
#X coords 0 -1 1 1 120 120 1 400 100;
