#N canvas 0 22 1280 752 10;
#X obj 34 747 vcf~, f 29;
#X text 779 425 1 - Recibe la señal a filtrar;
#X text 813 486 2 - Recibe la frecuencia central del vcf;
#X text 832 531 3 - Recibe la señal moduladora del filtro (hace variar
la frec de corte en el tiempo);
#X obj 335 747 hip~, f 29;
#X obj 506 667 snapshot~;
#X obj 586 607 loadbang;
#X obj 34 898 *~;
#X obj 335 900 *~;
#X obj 205 898 *~;
#X text 1026 787 4 - Control selector de salida: 0 -->pasa bajos 1
-->pasa banda 2 -->pasa altos;
#X text 913 731 5 - Recibe el valor del Q (selectividad del filtro)
;
#X text 947 601 6 - Recibe la ampitud de la moduladora (atenuador)
;
#X obj 586 632 metro 1;
#X obj 506 720 line;
#X obj 438 313 sig~;
#X obj 253 480 s~ \$0_freq;
#X obj 253 273 inlet~;
#X obj 253 353 *~ 60;
#X obj 438 353 ftom~;
#X obj 253 430 mtof~;
#X floatatom 410 170 8 0 20000 0 - - -, f 8;
#X obj 506 578 r~ \$0_freq;
#X floatatom 410 190 5 0 100 0 - - -, f 5;
#X obj 119 578 r~ \$0_freq;
#X obj 410 150 hradio 15 1 0 3 empty empty empty 0 -8 0 10 -262144
-1 -1 0;
#X obj 556 165 s \$0_mode;
#X obj 350 867 == 2;
#X obj 49 839 r \$0_mode;
#X obj 220 839 r \$0_mode;
#X obj 350 840 r \$0_mode;
#X obj 220 867 == 0;
#X obj 49 866 == 1;
#X obj 556 204 s \$0_q;
#X obj 205 578 r \$0_q;
#X obj 34 273 inlet~;
#X obj 34 481 s~ \$0_signal;
#X obj 34 578 r~ \$0_signal;
#X obj 335 578 r~ \$0_signal;
#X obj 34 993 outlet~;
#X obj 309 14 loadbang;
#X msg 270 56 1;
#X obj 556 184 s \$0_freq;
#X obj 438 273 r \$0_freq;
#X obj 253 393 +~;
#X msg 506 694 \$1 2;
#N canvas 196 152 219 292 attenuator 0;
#X obj 45 47 inlet~;
#X obj 45 188 outlet~;
#X obj 45 148 *~ 1;
#X obj 115 107 line;
#X msg 115 77 \$1 100;
#X obj 115 47 inlet;
#X connect 0 0 2 0;
#X connect 2 0 1 0;
#X connect 3 0 2 1;
#X connect 4 0 3 0;
#X connect 5 0 4 0;
#X restore 34 313 pd attenuator;
#X obj 109 273 r \$0_att_signal;
#N canvas 196 152 219 292 attenuator 0;
#X obj 45 47 inlet~;
#X obj 45 188 outlet~;
#X obj 45 148 *~ 1;
#X obj 115 107 line;
#X msg 115 77 \$1 100;
#X obj 115 47 inlet;
#X connect 0 0 2 0;
#X connect 2 0 1 0;
#X connect 3 0 2 1;
#X connect 4 0 3 0;
#X connect 5 0 4 0;
#X restore 253 313 pd attenuator;
#X obj 328 273 r \$0_att_freq;
#X floatatom 410 130 5 0 1 0 - - -, f 5;
#X floatatom 480 130 5 0 1 0 - - -, f 5;
#X msg 370 56 0;
#X msg 410 56 1;
#X obj 556 144 s \$0_att_signal;
#X obj 656 144 s \$0_att_freq;
#X obj 176 173 r X_VCF1_q;
#X obj 176 153 r X_VCF1_freq;
#X obj 176 133 r X_VCF1_mode;
#X obj 176 113 r X_VCF1_att_freq;
#X obj 39 113 r X_VCF1_att_signal;
#X msg 309 56 261.626;
#X connect 0 0 7 0;
#X connect 0 1 9 0;
#X connect 4 0 8 0;
#X connect 5 0 45 0;
#X connect 6 0 13 0;
#X connect 7 0 39 0;
#X connect 8 0 39 0;
#X connect 9 0 39 0;
#X connect 13 0 5 0;
#X connect 14 0 4 1;
#X connect 15 0 19 0;
#X connect 17 0 48 0;
#X connect 18 0 44 0;
#X connect 19 0 44 1;
#X connect 20 0 16 0;
#X connect 21 0 42 0;
#X connect 22 0 5 0;
#X connect 23 0 33 0;
#X connect 24 0 0 1;
#X connect 25 0 26 0;
#X connect 27 0 8 1;
#X connect 28 0 32 0;
#X connect 29 0 31 0;
#X connect 30 0 27 0;
#X connect 31 0 9 1;
#X connect 32 0 7 1;
#X connect 34 0 0 2;
#X connect 35 0 46 0;
#X connect 37 0 0 0;
#X connect 38 0 4 0;
#X connect 40 0 41 0;
#X connect 40 0 52 0;
#X connect 40 0 53 0;
#X connect 40 0 61 0;
#X connect 41 0 23 0;
#X connect 43 0 15 0;
#X connect 44 0 20 0;
#X connect 45 0 14 0;
#X connect 46 0 36 0;
#X connect 47 0 46 1;
#X connect 48 0 18 0;
#X connect 49 0 48 1;
#X connect 50 0 54 0;
#X connect 51 0 55 0;
#X connect 52 0 25 0;
#X connect 53 0 50 0;
#X connect 53 0 51 0;
#X connect 56 0 23 0;
#X connect 57 0 21 0;
#X connect 58 0 25 0;
#X connect 59 0 51 0;
#X connect 60 0 50 0;
#X connect 61 0 21 0;
#X coords 0 -1 1 1 120 120 1 400 100;
