#N canvas 0 22 450 300 10;
#X obj 45 47 inlet~;
#X obj 45 218 outlet~;
#X obj 45 178 *~ 1;
#X obj 115 137 line;
#X obj 115 47 inlet;
#X obj 115 77 * 0.01;
#X msg 115 107 \$1 10;
#X connect 0 0 2 0;
#X connect 2 0 1 0;
#X connect 3 0 2 1;
#X connect 4 0 5 0;
#X connect 5 0 6 0;
#X connect 6 0 3 0;
