#N canvas 297 142 450 300 10;
#X obj 88 182 *~;
#X obj 103 103 tgl 14 0 empty empty empty 17 7 0 10 -262144 -1 -1 0
1;
#X obj 103 154 line~;
#X msg 103 128 \$1 10;
#X obj 103 72 r connect-\$1-\$2;
#X obj 88 47 inlet~;
#X obj 88 217 outlet~;
#X obj 287 72 r X_MTX_reset;
#X obj 287 100 s connect-\$1-\$2;
#X connect 0 0 6 0;
#X connect 1 0 3 0;
#X connect 2 0 0 1;
#X connect 3 0 2 0;
#X connect 4 0 1 0;
#X connect 5 0 0 0;
#X connect 7 0 8 0;
#X coords 0 -1 1 1 20 20 2 100 100;
