#N canvas 238 276 483 321 10;
#X obj 19 199 pack s f, f 18;
#X obj 146 259 outlet;
#X obj 19 139 t b f, f 18;
#X obj 19 109 f;
#X obj 119 49 t f f;
#X obj 19 19 r get_param;
#X obj 19 259 s param;
#X obj 299 19 r X_OSC;
#X obj 299 49 route synth;
#X obj 299 79 route \$1;
#X obj 368 169 makefilename %d;
#X obj 368 109 loadbang;
#X obj 299 199 route number;
#X obj 119 19 r \$1_\$2;
#X obj 299 259 s \$1_\$2;
#X obj 209 79 f \$4;
#X obj 34 49 r \$3_\$2;
#X obj 299 229 route \$2;
#X obj 19 169 symbol \$1_\$2;
#X obj 368 139;
#X text 403 141 f \$2;
#X obj 209 19 r \$1_load;
#X connect 0 0 6 0;
#X connect 2 0 18 0;
#X connect 2 1 0 1;
#X connect 3 0 2 0;
#X connect 4 0 3 1;
#X connect 4 1 1 0;
#X connect 5 0 3 0;
#X connect 7 0 8 0;
#X connect 8 0 9 0;
#X connect 9 0 12 0;
#X connect 10 0 12 1;
#X connect 11 0 19 0;
#X connect 12 0 17 0;
#X connect 13 0 4 0;
#X connect 15 0 1 0;
#X connect 16 0 3 1;
#X connect 17 0 14 0;
#X connect 18 0 0 0;
#X connect 19 0 10 0;
#X connect 21 0 15 0;
#X coords 0 321 1 320 85 60 0;
