#N canvas 0 22 599 639 10;
#X obj 26 108 inlet~;
#X obj 26 48 switch~;
#X obj 26 498 *~;
#X obj 64 460 line~;
#X obj 26 561 outlet~;
#X obj 26 18 r \$0-switch;
#X obj 64 432 r \$0-line;
#X obj 113 108 inlet~;
#X msg 261 329 0 10;
#X msg 358 329 1 10;
#X obj 186 218 route 0 1, f 58;
#X obj 186 329 delay 10;
#X obj 433 389 s \$0-switch;
#X obj 186 389 s \$0-switch;
#X obj 186 298 t b b, f 13;
#X obj 358 298 t b b, f 13;
#X msg 186 359 0;
#X msg 433 359 1;
#X obj 261 389 s \$0-line;
#X obj 358 389 s \$0-line;
#X obj 186 108 inlet;
#X obj 358 258 delay 10;
#N canvas 496 133 589 539 (subpatch) 1;
#X obj 46 503 outlet~;
#X obj 44 81 phasor~;
#X obj 151 252 *~;
#X obj 46 336 +~;
#N canvas 0 22 220 222 saw 0;
#X obj 62 119 -~ 1;
#X obj 62 141 outlet~;
#X obj 62 73 inlet~;
#X obj 62 97 +~;
#X connect 0 0 1 0;
#X connect 2 0 3 0;
#X connect 2 0 3 1;
#X connect 3 0 0 0;
#X restore 46 296 pd saw;
#X obj 254 222 +~;
#X obj 254 254 wrap~;
#X obj 46 397 -~;
#X obj 190 326 +~;
#N canvas 0 22 220 222 saw 0;
#X obj 62 119 -~ 1;
#X obj 62 141 outlet~;
#X obj 62 73 inlet~;
#X obj 62 97 +~;
#X connect 0 0 1 0;
#X connect 2 0 3 0;
#X connect 2 0 3 1;
#X connect 3 0 0 0;
#X restore 190 296 pd saw;
#X obj 46 457 -~ 1;
#X obj 46 427 +~;
#X obj 254 296 polyblep;
#X obj 106 296 polyblep;
#N canvas 0 22 253 235 1/Fs 0;
#X obj 55 77 samplerate~;
#X msg 55 97 1 \$1;
#X obj 55 117 /;
#X obj 55 137 sig~;
#X obj 55 159 outlet~;
#X obj 55 47 r \$1_load;
#X connect 0 0 1 0;
#X connect 1 0 2 0;
#X connect 2 0 3 0;
#X connect 3 0 4 0;
#X connect 5 0 0 0;
#X restore 166 224 pd 1/Fs;
#X obj 269 119 samphold~;
#X obj 341 296 +~;
#X obj 44 35 inlet~;
#X obj 269 36 inlet~;
#X connect 1 0 4 0;
#X connect 1 0 5 0;
#X connect 1 0 13 0;
#X connect 1 0 15 1;
#X connect 2 0 12 1;
#X connect 2 0 13 1;
#X connect 3 0 7 0;
#X connect 4 0 3 0;
#X connect 5 0 6 0;
#X connect 6 0 9 0;
#X connect 6 0 12 0;
#X connect 7 0 11 0;
#X connect 8 0 7 1;
#X connect 9 0 8 0;
#X connect 10 0 0 0;
#X connect 11 0 10 0;
#X connect 12 0 8 1;
#X connect 13 0 3 1;
#X connect 14 0 2 1;
#X connect 15 0 5 1;
#X connect 15 0 16 0;
#X connect 15 0 16 1;
#X connect 16 0 11 1;
#X connect 17 0 1 0;
#X connect 17 0 2 0;
#X connect 18 0 15 0;
#X restore 26 218 pd;
#X connect 0 0 22 0;
#X connect 2 0 4 0;
#X connect 3 0 2 1;
#X connect 5 0 1 0;
#X connect 6 0 3 0;
#X connect 7 0 22 1;
#X connect 8 0 18 0;
#X connect 9 0 19 0;
#X connect 10 0 14 0;
#X connect 10 1 21 0;
#X connect 11 0 16 0;
#X connect 14 0 11 0;
#X connect 14 1 8 0;
#X connect 15 0 9 0;
#X connect 15 1 17 0;
#X connect 16 0 13 0;
#X connect 17 0 12 0;
#X connect 20 0 10 0;
#X connect 21 0 15 0;
#X connect 22 0 2 0;
