#N canvas 283 146 766 572 10;
#N canvas 115 22 931 752 presets 0;
#X obj 224 433 s get_param;
#X obj 400 573 textfile;
#X msg 321 493 clear;
#X msg 481 663 addsemi;
#X msg 589 493 rewind;
#X msg 400 663 add2 \$1 \$2;
#X obj 400 603 list;
#X obj 400 633 t l b;
#X obj 500 493 until;
#X msg 224 492 add \$1 \$2;
#X obj 224 462 r param;
#X msg 30 493 write \$1.txt;
#X msg 767 493 clear;
#X obj 30 203 route save load;
#X obj 329 663 r \$0_done;
#X obj 527 463 r \$0_done;
#X obj 30 253 symbol;
#X obj 445 603 s \$0_done;
#X msg 857 493 set;
#N canvas 0 22 257 412 (subpatch) 0;
#X obj 19 19 inlet;
#X msg 19 41 \; X_SEQ_0_clock_src 1 \; X_SEQ_0_BPM 100 \; X_SEQ_15_step_15
0 \; X_SEQ_15_step_15_bus1 0 \; X_SEQ_15_step_15_bus1 0 \; X_SEQ_15_step_15_bus0
0 \; X_SEQ_13_step_13 -0.0629921 \; X_SEQ_13_step_13_bus1 0 \; X_SEQ_13_step_13_bus1
0 \; X_SEQ_13_step_13_bus0 0 \; X_SEQ_12_step_12 0.0944882 \; X_SEQ_12_step_12_bus1
0 \; X_SEQ_12_step_12_bus1 0 \; X_SEQ_12_step_12_bus0 0 \; X_SEQ_11_step_11
-0.0787402 \; X_SEQ_11_step_11_bus1 0 \; X_SEQ_11_step_11_bus1 0 \;
X_SEQ_11_step_11_bus0 0 \; X_SEQ_10_step_10 0.251969 \; X_SEQ_10_step_10_bus1
0 \; X_SEQ_10_step_10_bus1 0 \; X_SEQ_10_step_10_bus0 0 \; X_SEQ_9_step_9
0.0629921 \; X_SEQ_9_step_9_bus1 0 \; X_SEQ_9_step_9_bus1 0 \; X_SEQ_9_step_9_bus0
0 \; X_SEQ_8_step_8 0.173228 \; X_SEQ_8_step_8_bus1 0 \; X_SEQ_8_step_8_bus1
0 \; X_SEQ_8_step_8_bus0 0 \; X_SEQ_7_step_7 0.110236 \; X_SEQ_7_step_7_bus1
0 \; X_SEQ_7_step_7_bus1 0 \; X_SEQ_7_step_7_bus0 0 \; X_SEQ_6_step_6
-0.0944882 \; X_SEQ_6_step_6_bus1 0 \; X_SEQ_6_step_6_bus1 0 \; X_SEQ_6_step_6_bus0
0 \; X_SEQ_5_step_5 0.125984 \; X_SEQ_5_step_5_bus1 0 \; X_SEQ_5_step_5_bus1
0 \; X_SEQ_5_step_5_bus0 0 \; X_SEQ_4_step_4 0.0472441 \; X_SEQ_4_step_4_bus1
0 \; X_SEQ_4_step_4_bus1 0 \; X_SEQ_4_step_4_bus0 0 \; X_SEQ_3_step_3
-0.141732 \; X_SEQ_3_step_3_bus1 0 \; X_SEQ_3_step_3_bus1 0 \; X_SEQ_3_step_3_bus0
0 \; X_SEQ_2_step_2 0.141732 \; X_SEQ_2_step_2_bus1 0 \; X_SEQ_2_step_2_bus1
0 \; X_SEQ_2_step_2_bus0 0 \; X_SEQ_1_step_1 0 \; X_SEQ_1_step_1_bus1
0 \; X_SEQ_1_step_1_bus1 0 \; X_SEQ_1_step_1_bus0 0 \; X_SEQ_0_step_0
0.0629921 \; X_SEQ_0_step_0_bus1 0 \; X_SEQ_0_step_0_bus1 0 \; X_SEQ_0_step_0_bus0
0 \; X_SEQ_14_step_14 0.0472441 \; X_SEQ_14_step_14_bus1 0 \; X_SEQ_14_step_14_bus1
0 \; X_SEQ_14_step_14_bus0 0 \; X_EG_1_gate 0 \; X_EG_1_release 100
\; X_EG_1_sustain 1 \; X_EG_1_decay 10 \; X_EG_1_attack 10 \; X_VCA_1_clip
0 \; X_VCA_1_base 1 \; X_VCA_1_att_control 100 \; X_VCF_1_q 4 \; X_VCF_1_freq
556.626 \; X_VCF_1_mode 0 \; X_VCF_1_att_freq -70 \; X_VCF_1_att_signal
100 \; X_VCO_2_pw 50 \; X_VCO_2_offset 0 \; X_VCO_2_freq 0.2 \; X_VCO_2_shape
1 \; X_VCO_2_att_pw 100 \; X_VCO_2_att_freq1 100 \; X_VCO_2_att_freq0
100 \; X_VCO_1_pw 66 \; X_VCO_1_offset 0 \; X_VCO_1_freq 261.626 \;
X_VCO_1_shape 4 \; X_VCO_1_att_pw 30 \; X_VCO_1_att_freq1 100 \; X_VCO_1_att_freq0
-80 \; X_MIX_0_master 1 \; X_MIX_0_ch4 0.5 \; X_MIX_0_ch3 0.5 \; X_MIX_0_ch2
0.5 \; X_MIX_0_ch1 0.5 \; X_EG_0_gate 0 \; X_EG_0_release 100 \; X_EG_0_sustain
1 \; X_EG_0_decay 10 \; X_EG_0_attack 10 \; X_VCA_0_clip 0 \; X_VCA_0_base
1 \; X_VCA_0_att_control 100 \; X_VCF_0_q 4 \; X_VCF_0_freq 531.626
\; X_VCF_0_mode 0 \; X_VCF_0_att_freq 70 \; X_VCF_0_att_signal 100
\; X_SH_0_att_signal 75 \; X_SH_0_glide 5000 \; X_KB_0_glide 0 \; X_KB_0_gate
0 \; X_KB_0_midi_note 0 \; X_VCO_0_pw 67 \; X_VCO_0_offset 0 \; X_VCO_0_freq
130.813 \; X_VCO_0_shape 4 \; X_VCO_0_att_pw -30 \; X_VCO_0_att_freq1
100 \; X_VCO_0_att_freq0 100 \; connect-11-26 1 \; connect-8-22 1 \;
connect-7-21 1 \; connect-6-17 1 \; connect-5-15 1 \; connect-4-14
1 \; connect-1-13 1 \; connect-4-12 1 \; connect-0-11 1 \; connect-2-10
1 \; connect-3-9 1 \; connect-2-5 1 \; connect-14-3 1 \; connect-2-2
1 \; connect-14-0 1, f 26;
#X connect 0 0 1 0;
#X restore 400 763 pd;
#X obj 30 113 openpanel;
#X obj 114 113 savepanel;
#X obj 30 60 bng 15 250 50 0 empty empty empty 17 7 0 10 -262144 -1
-1;
#X obj 30 40 bng 15 250 50 0 empty empty empty 17 7 0 10 -262144 -1
-1;
#X text 50 60 load;
#X text 51 40 save;
#X msg 678 493 read \$1;
#X msg 114 143 save \$1;
#X msg 30 143 load \$1;
#X msg 127 492 add \$1 \$2;
#X obj 127 433 s get_node;
#X obj 127 462 r node;
#X obj 30 403 t l b b b, f 49;
#X obj 593 313 s X_MTX_reset;
#X obj 212 143 r X_PRESET;
#X obj 500 283 t s b, f 16;
#X obj 500 253 symbol;
#X obj 500 313 t b s, f 11;
#X obj 500 373 symbol, f 11;
#X obj 500 343 delay 20;
#X obj 500 403 t b b s b b, f 60;
#X obj 329 52 r X_OSC;
#X obj 329 82 route synth;
#X obj 329 112 route preset;
#X obj 329 142 s X_PRESET;
#X text 133 525 aca habria que listar los mensajes para crear y conectar
todo, f 13;
#X connect 1 0 6 0;
#X connect 1 1 17 0;
#X connect 2 0 1 0;
#X connect 3 0 19 0;
#X connect 4 0 1 0;
#X connect 5 0 19 0;
#X connect 6 0 7 0;
#X connect 7 0 5 0;
#X connect 7 1 3 0;
#X connect 8 0 1 0;
#X connect 9 0 1 0;
#X connect 10 0 9 0;
#X connect 11 0 1 0;
#X connect 12 0 1 0;
#X connect 13 0 16 0;
#X connect 13 1 36 0;
#X connect 14 0 19 0;
#X connect 15 0 8 1;
#X connect 16 0 32 0;
#X connect 18 0 19 0;
#X connect 20 0 28 0;
#X connect 21 0 27 0;
#X connect 22 0 20 0;
#X connect 23 0 21 0;
#X connect 26 0 1 0;
#X connect 27 0 13 0;
#X connect 28 0 13 0;
#X connect 29 0 1 0;
#X connect 31 0 29 0;
#X connect 32 0 11 0;
#X connect 32 1 30 0;
#X connect 32 2 0 0;
#X connect 32 3 2 0;
#X connect 34 0 13 0;
#X connect 35 0 37 0;
#X connect 35 1 33 0;
#X connect 36 0 35 0;
#X connect 37 0 39 0;
#X connect 37 1 38 1;
#X connect 38 0 40 0;
#X connect 39 0 38 0;
#X connect 40 0 8 0;
#X connect 40 1 4 0;
#X connect 40 2 26 0;
#X connect 40 3 12 0;
#X connect 40 4 18 0;
#X connect 41 0 42 0;
#X connect 42 0 43 0;
#X connect 43 0 44 0;
#X coords 0 -1 1 1 85 60 1 20 20;
#X restore 93 35 pd presets;
#N canvas 594 306 314 268 OSC 0;
#X obj 29 93 netreceive -u -b;
#X msg 29 63 listen \$1;
#X obj 29 33 r X_PORT;
#X obj 29 123 oscparse;
#X obj 29 183 s X_OSC;
#X obj 29 153 list trim;
#X obj 147 33 loadbang;
#X obj 147 170 s X_PORT;
#X floatatom 147 133 5 0 0 0 - - -, f 5;
#X text 185 132 port;
#X msg 147 63 5000;
#X connect 0 0 3 0;
#X connect 1 0 0 0;
#X connect 2 0 1 0;
#X connect 3 0 5 0;
#X connect 5 0 4 0;
#X connect 6 0 10 0;
#X connect 8 0 7 0;
#X connect 10 0 8 0;
#X coords 0 -1 1 1 85 60 1 140 100;
#X restore 93 105 pd OSC;
