#N canvas 0 22 599 639 10;
#X obj 26 108 inlet~;
#X obj 26 48 switch~;
#X obj 26 498 *~;
#X obj 64 460 line~;
#X obj 26 561 outlet~;
#X obj 26 18 r \$0-switch;
#X obj 64 432 r \$0-line;
#X obj 26 147 phasor~;
#X obj 26 223 *~ 2;
#X obj 26 251 -~ 1;
#X msg 231 332 0 10;
#X msg 328 332 1 10;
#X obj 156 221 route 0 1, f 58;
#X obj 156 332 delay 10;
#X obj 403 392 s \$0-switch;
#X obj 156 392 s \$0-switch;
#X obj 156 301 t b b, f 13;
#X obj 328 301 t b b, f 13;
#X msg 156 362 0;
#X msg 403 362 1;
#X obj 231 392 s \$0-line;
#X obj 328 392 s \$0-line;
#X obj 156 108 inlet;
#X obj 328 261 delay 10;
#X obj 26 281 abs~;
#X obj 26 311 *~ 2;
#X obj 26 339 -~ 1;
#X connect 0 0 7 0;
#X connect 2 0 4 0;
#X connect 3 0 2 1;
#X connect 5 0 1 0;
#X connect 6 0 3 0;
#X connect 7 0 8 0;
#X connect 8 0 9 0;
#X connect 9 0 24 0;
#X connect 10 0 20 0;
#X connect 11 0 21 0;
#X connect 12 0 16 0;
#X connect 12 1 23 0;
#X connect 13 0 18 0;
#X connect 16 0 13 0;
#X connect 16 1 10 0;
#X connect 17 0 11 0;
#X connect 17 1 19 0;
#X connect 18 0 15 0;
#X connect 19 0 14 0;
#X connect 22 0 12 0;
#X connect 23 0 17 0;
#X connect 24 0 25 0;
#X connect 25 0 26 0;
#X connect 26 0 2 0;
