#N canvas 27 27 1239 571 10;
#X obj 390 490 vline~;
#X obj 711 137 vsl 15 96 1 5000 1 1 empty empty empty 0 -9 0 10 -262144
-1 -1 2568 1;
#X obj 746 137 vsl 15 96 1 5000 1 0 empty empty empty 0 -9 0 10 -262144
-1 -1 0 1;
#X obj 781 137 vsl 15 96 0 1 0 0 empty empty empty 0 -9 0 10 -262144
-1 -1 0 1;
#X obj 816 137 vsl 15 96 1 5000 1 0 empty empty empty 0 -9 0 10 -262144
-1 -1 0 1;
#X obj 390 533 outlet~;
#X obj 30 360 inlet~;
#X obj 249 400 sel 1, f 11;
#X msg 312 430 bang;
#X obj 839 112 tgl 15 0 empty empty empty 17 7 0 10 -262144 -1 -1 0
1;
#X obj 30 400 threshold~ 0.5 10 0.5 10;
#X floatatom 711 240 5 0 0 0 - - -, f 5;
#X floatatom 746 240 5 0 0 0 - - -, f 5;
#X floatatom 781 240 5 0 0 0 - - -, f 5;
#X floatatom 816 240 5 0 0 0 - - -, f 5;
#X obj 734 400 pack 0 f, f 13;
#X msg 390 430 \$1 \$2 \, \$4 \$3 \$2;
#X obj 390 400 pack 1 f f f, f 39;
#X obj 908 127 s \$0_gate;
#X obj 910 236 s \$0_attack;
#X obj 990 236 s \$0_decay;
#X obj 1060 236 s \$0_sustain;
#X obj 1140 236 s \$0_release;
#X obj 30 428 s \$0_on;
#X obj 171 429 s \$0_off;
#X obj 249 360 r \$0_gate;
#X obj 249 460 s \$0_on;
#X obj 312 460 s \$0_off;
#X obj 390 360 r \$0_on;
#X obj 467 360 r \$0_attack;
#X obj 544 360 r \$0_decay;
#X obj 621 360 r \$0_sustain;
#X obj 734 360 r \$0_off;
#X obj 809 358 r \$0_release;
#X obj 18 49 switch~;
#X obj 83 118 param \$1 attack \$0 10;
#X obj 233 118 param \$1 decay \$0 10;
#X obj 373 118 param \$1 sustain \$0 1;
#X obj 523 95 param \$1 gate \$0 0;
#X obj 523 118 param \$1 release \$0 100;
#X obj 18 19 param \$1 on-off \$0 0;
#X connect 0 0 5 0;
#X connect 1 0 11 0;
#X connect 1 0 19 0;
#X connect 2 0 12 0;
#X connect 2 0 20 0;
#X connect 3 0 13 0;
#X connect 3 0 21 0;
#X connect 4 0 14 0;
#X connect 4 0 22 0;
#X connect 6 0 10 0;
#X connect 7 0 26 0;
#X connect 7 1 8 0;
#X connect 8 0 27 0;
#X connect 9 0 18 0;
#X connect 10 0 23 0;
#X connect 10 1 24 0;
#X connect 15 0 0 0;
#X connect 16 0 0 0;
#X connect 17 0 16 0;
#X connect 25 0 7 0;
#X connect 28 0 17 0;
#X connect 29 0 17 1;
#X connect 30 0 17 2;
#X connect 31 0 17 3;
#X connect 32 0 15 0;
#X connect 33 0 15 1;
#X connect 35 0 1 0;
#X connect 36 0 2 0;
#X connect 37 0 3 0;
#X connect 38 0 9 0;
#X connect 39 0 4 0;
#X connect 40 0 34 0;
#X coords 0 -1 1 1 160 160 1 700 100;
