#N canvas 110 64 570 524 10;
#X obj 19 448 *~;
#X obj 19 309 inlet~;
#X obj 19 483 outlet~;
#X obj 34 405 line~;
#X msg 34 379 \$1 10;
#X obj 34 349 r \$0_fade;
#X obj 19 49 switch~;
#X obj 172 50 tgl 15 0 empty empty empty 17 7 0 10 -262144 -1 -1 0
1;
#X obj 172 80 moses 1, f 33;
#X obj 478 260 s \$0_switch;
#X obj 367 140 t b b, f 19;
#X msg 478 230 1;
#X obj 367 170 delay 10;
#X obj 367 200 t b b;
#X msg 394 230 0 \, 1 10;
#X obj 19 19 r \$0_switch;
#X obj 394 260 s \$0_fade;
#X obj 172 20 r \$1;
#X obj 199 260 s \$0_switch;
#X obj 172 140 t b b, f 19;
#X obj 172 170 delay 10;
#X obj 172 200 t b b;
#X obj 283 260 s \$0_fade;
#X msg 199 230 0;
#X msg 283 230 1 \, 0 10;
#X connect 0 0 2 0;
#X connect 1 0 0 0;
#X connect 3 0 0 1;
#X connect 4 0 3 0;
#X connect 5 0 4 0;
#X connect 7 0 8 0;
#X connect 8 0 19 0;
#X connect 8 1 10 0;
#X connect 10 0 12 0;
#X connect 10 1 11 0;
#X connect 11 0 9 0;
#X connect 12 0 13 0;
#X connect 13 1 14 0;
#X connect 14 0 16 0;
#X connect 15 0 6 0;
#X connect 17 0 7 0;
#X connect 19 0 20 0;
#X connect 19 1 24 0;
#X connect 20 0 21 0;
#X connect 21 1 23 0;
#X connect 23 0 18 0;
#X connect 24 0 22 0;
