#N canvas 383 214 500 511 10;
#X obj 109 426 sig~, f 9;
#X obj 109 490 outlet~;
#X obj 29 490 outlet~;
#X obj 29 303 expr ($f1*2/120)-1;
#X text 154 296 entre -1 y 1 a 0.2 v por octava hay 10 octavas;
#X text 154 306 hay 120 semitonos en 10 octavas;
#X obj 278 235 notein;
#X obj 294 257 > 0;
#X obj 29 425 line~;
#X obj 29 390 pack;
#X obj 29 107 r X_KB_midi_note;
#X obj 49 137 r X_KB_gate;
#X obj 73 164 r X_KB_glide;
#X floatatom 211 181 5 0 5000 0 - - -, f 5;
#X obj 330 195 s \$0_glide;
#X obj 50 348 r \$0_glide;
#X obj 172 21 loadbang;
#X msg 172 50 0;
#X obj 294 110 bng 15 250 50 0 empty empty empty 17 7 0 10 -262144
-1 -1;
#X connect 0 0 1 0;
#X connect 3 0 9 0;
#X connect 6 0 3 0;
#X connect 6 1 7 0;
#X connect 7 0 0 0;
#X connect 7 0 18 0;
#X connect 8 0 2 0;
#X connect 9 0 8 0;
#X connect 10 0 3 0;
#X connect 11 0 0 0;
#X connect 12 0 13 0;
#X connect 13 0 14 0;
#X connect 15 0 9 1;
#X connect 16 0 17 0;
#X connect 17 0 13 0;
#X coords 0 -1 1 1 120 120 1 200 100;
