#N canvas 487 103 443 565 10;
#X obj 179 485 sig~, f 9;
#X obj 179 515 outlet~;
#X obj 19 515 outlet~;
#X obj 19 395 expr ($f1*2/120)-1;
#X obj 21 245 notein, f 32;
#X obj 115 275 > 0;
#X obj 19 485 line~;
#X obj 19 455 pack;
#X floatatom 211 176 5 0 5000 0 - - -, f 5;
#X obj 289 116 bng 15 250 50 0 empty empty empty 17 7 0 10 -262144
-1 -1;
#X obj 330 190 s \$0_glide;
#X obj 40 425 r \$0_glide;
#X obj 18 49 switch~;
#X obj 330 146 s \$0_midi_note;
#X obj 19 365 r \$0_midi_note;
#X obj 330 116 s \$0_gate;
#X obj 179 365 r \$0_gate;
#X obj 115 305 s \$0_gate;
#X obj 289 69 r \$0_gate;
#X obj 21 306 s \$0_midi_note;
#X obj 267 275 makenote 127 1000;
#X floatatom 267 245 5 0 0 0 - - -, f 5;
#X obj 18 19 param \$1 on-off \$0 0;
#X obj 19 99 param \$1 gate \$0 0;
#X obj 19 129 param \$1 midi_note \$0 0;
#X obj 19 159 param \$1 glide \$0 0;
#X connect 0 0 1 0;
#X connect 3 0 7 0;
#X connect 4 0 19 0;
#X connect 4 1 5 0;
#X connect 5 0 17 0;
#X connect 6 0 2 0;
#X connect 7 0 6 0;
#X connect 8 0 10 0;
#X connect 11 0 7 1;
#X connect 14 0 3 0;
#X connect 16 0 0 0;
#X connect 18 0 9 0;
#X connect 20 0 19 0;
#X connect 20 1 17 0;
#X connect 21 0 20 0;
#X connect 22 0 12 0;
#X connect 23 0 15 0;
#X connect 24 0 13 0;
#X connect 25 0 8 0;
#X coords 0 -1 1 1 120 120 1 200 100;
