#N canvas 0 22 1280 752 10;
#X obj 22 796 osc~;
#X obj 150 796 phasor~;
#X obj 410 905 abs~;
#X obj 150 840 *~ 2;
#X obj 150 868 -~ 1;
#X obj 410 935 *~ 2;
#X obj 410 963 -~ 1;
#X obj 610 148 hradio 15 1 0 5 empty empty empty 0 -8 0 10 -262144
-1 -1 0;
#X floatatom 610 196 5 0 100 0 - - -, f 5;
#X obj 126 615 expr~ $v1 != 0;
#X obj 21 1154 *~;
#X obj 536 493 sig~;
#X obj 366 313 inlet~;
#X obj 366 550 +~;
#X obj 536 403 / 100;
#X obj 535 931 *~ 2;
#X obj 535 959 -~ 1;
#X obj 366 586 clip~ 0 1;
#N canvas 0 22 450 300 vol 0;
#X obj 122 28 inlet~;
#X obj 122 202 *~;
#X obj 203 166 line~;
#X obj 122 265 outlet~;
#X obj 203 28 inlet;
#X obj 203 57 select 0;
#X msg 248 90 bang;
#X msg 203 118 0 10;
#X msg 248 118 1 10;
#X connect 0 0 1 0;
#X connect 1 0 3 0;
#X connect 2 0 1 1;
#X connect 4 0 5 0;
#X connect 5 0 7 0;
#X connect 5 1 6 0;
#X connect 6 0 8 0;
#X connect 7 0 2 0;
#X connect 8 0 2 0;
#X restore 22 1064 pd vol;
#N canvas 0 22 450 300 vol 0;
#X obj 122 28 inlet~;
#X obj 122 202 *~;
#X obj 203 166 line~;
#X obj 122 265 outlet~;
#X obj 203 28 inlet;
#X obj 203 57 select 0;
#X msg 248 90 bang;
#X msg 203 118 0 10;
#X msg 248 118 1 10;
#X connect 0 0 1 0;
#X connect 1 0 3 0;
#X connect 2 0 1 1;
#X connect 4 0 5 0;
#X connect 5 0 7 0;
#X connect 5 1 6 0;
#X connect 6 0 8 0;
#X connect 7 0 2 0;
#X connect 8 0 2 0;
#X restore 150 1064 pd vol;
#N canvas 0 22 450 300 vol 0;
#X obj 122 28 inlet~;
#X obj 122 202 *~;
#X obj 203 166 line~;
#X obj 122 265 outlet~;
#X obj 203 28 inlet;
#X obj 203 57 select 0;
#X msg 248 90 bang;
#X msg 203 118 0 10;
#X msg 248 118 1 10;
#X connect 0 0 1 0;
#X connect 1 0 3 0;
#X connect 2 0 1 1;
#X connect 4 0 5 0;
#X connect 5 0 7 0;
#X connect 5 1 6 0;
#X connect 6 0 8 0;
#X connect 7 0 2 0;
#X connect 8 0 2 0;
#X restore 410 1064 pd vol;
#N canvas 0 22 450 300 vol 0;
#X obj 122 28 inlet~;
#X obj 122 202 *~;
#X obj 203 166 line~;
#X obj 122 265 outlet~;
#X obj 203 28 inlet;
#X obj 203 57 select 0;
#X msg 248 90 bang;
#X msg 203 118 0 10;
#X msg 248 118 1 10;
#X connect 0 0 1 0;
#X connect 1 0 3 0;
#X connect 2 0 1 1;
#X connect 4 0 5 0;
#X connect 5 0 7 0;
#X connect 5 1 6 0;
#X connect 6 0 8 0;
#X connect 7 0 2 0;
#X connect 8 0 2 0;
#X restore 535 1064 pd vol;
#X obj 366 403 /~ 2;
#X obj 55 1037 == 0;
#X obj 183 1038 == 1;
#X obj 263 403 sig~;
#X obj 22 313 inlet~;
#X obj 22 403 *~ 60;
#X obj 22 511 +~;
#X obj 263 444 ftom~;
#X obj 22 548 mtof~;
#X obj 21 1291 outlet~;
#X obj 536 463 line;
#X msg 536 433 \$1 10;
#X floatatom 610 124 5 -100 100 0 - - -, f 5;
#N canvas 0 22 450 300 vol 0;
#X obj 122 28 inlet~;
#X obj 122 202 *~;
#X obj 203 166 line~;
#X obj 122 265 outlet~;
#X obj 203 28 inlet;
#X obj 203 57 select 0;
#X msg 248 90 bang;
#X msg 203 118 0 10;
#X msg 248 118 1 10;
#X connect 0 0 1 0;
#X connect 1 0 3 0;
#X connect 2 0 1 1;
#X connect 4 0 5 0;
#X connect 5 0 7 0;
#X connect 5 1 6 0;
#X connect 6 0 8 0;
#X connect 7 0 2 0;
#X connect 8 0 2 0;
#X restore 280 1064 pd vol;
#X obj 280 935 *~ -1;
#X obj 313 1038 == 2;
#X obj 443 1038 == 3;
#X obj 568 1038 == 4;
#X obj 535 846 expr~ $v1 < $v2;
#X floatatom 680 124 5 -100 100 0 - - -, f 5;
#X obj 22 363 attenuator;
#X obj 366 363 attenuator;
#X obj 741 138 s \$0_att_freq0;
#X obj 851 138 s \$0_att_pw;
#X obj 741 163 s \$0_shape;
#X obj 741 187 s \$0_freq;
#X obj 741 210 s \$0_pw;
#X obj 79 313 r \$0_att_freq0;
#X obj 263 313 r \$0_freq;
#X obj 423 313 r \$0_att_pw;
#X obj 536 313 r \$0_pw;
#X obj 22 749 r~ \$0_freq;
#X obj 622 818 r~ \$0_width;
#X obj 55 1010 r \$0_shape;
#X obj 183 1010 r \$0_shape;
#X obj 313 1010 r \$0_shape;
#X obj 443 1011 r \$0_shape;
#X obj 568 1011 r \$0_shape;
#X obj 410 1111 r~ \$0_gate;
#X obj 22 655 s~ \$0_freq;
#X obj 126 655 s~ \$0_gate;
#X obj 366 655 s~ \$0_width;
#X obj 18 49 switch~;
#X obj 22 578 /~ 83.7201;
#N canvas 385 226 256 294 freq_BPM 0;
#X floatatom 20 50 8 0 100 0 - - -, f 8;
#X floatatom 88 50 5 0 6000 0 - - -, f 5;
#X obj 20 229 outlet;
#X obj 20 20 inlet;
#X obj 88 20 inlet;
#X obj 89 230 outlet;
#X obj 34 114 * 60;
#X obj 104 114 / 60;
#X msg 104 144 set \$1;
#X connect 0 0 2 0;
#X connect 0 0 6 0;
#X connect 1 0 5 0;
#X connect 1 0 7 0;
#X connect 3 0 0 0;
#X connect 4 0 1 0;
#X connect 6 0 1 0;
#X connect 7 0 8 0;
#X connect 8 0 0 0;
#X coords 0 -1 1 1 100 14 2 20 50;
#X restore 611 173 pd freq_BPM;
#X obj 811 187 s \$0_BPM;
#X obj 18 19 param \$1 on-off \$0 0;
#X obj 256 107 param \$1 att_freq0 \$0 100;
#X obj 426 107 param \$1 att_pw \$0 100;
#X obj 426 131 param \$1 shape \$0 0;
#X obj 256 156 param \$1 freq \$0 2;
#X obj 426 156 param \$1 BPM \$0 120;
#X obj 426 179 param \$1 pw \$0 50;
#X connect 0 0 18 0;
#X connect 1 0 3 0;
#X connect 1 0 40 0;
#X connect 2 0 5 0;
#X connect 3 0 4 0;
#X connect 4 0 2 0;
#X connect 4 0 36 0;
#X connect 4 0 19 0;
#X connect 5 0 6 0;
#X connect 6 0 20 0;
#X connect 7 0 46 0;
#X connect 8 0 48 0;
#X connect 9 0 62 0;
#X connect 10 0 31 0;
#X connect 11 0 13 1;
#X connect 12 0 43 0;
#X connect 13 0 17 0;
#X connect 14 0 33 0;
#X connect 15 0 16 0;
#X connect 16 0 21 0;
#X connect 17 0 63 0;
#X connect 18 0 10 0;
#X connect 19 0 10 0;
#X connect 20 0 10 0;
#X connect 21 0 10 0;
#X connect 22 0 13 0;
#X connect 23 0 18 1;
#X connect 24 0 19 1;
#X connect 25 0 29 0;
#X connect 26 0 42 0;
#X connect 27 0 28 0;
#X connect 28 0 30 0;
#X connect 29 0 28 1;
#X connect 30 0 65 0;
#X connect 32 0 11 0;
#X connect 33 0 32 0;
#X connect 34 0 44 0;
#X connect 35 0 10 0;
#X connect 36 0 35 0;
#X connect 37 0 35 1;
#X connect 38 0 20 1;
#X connect 39 0 21 1;
#X connect 40 0 15 0;
#X connect 41 0 45 0;
#X connect 42 0 27 0;
#X connect 43 0 22 0;
#X connect 49 0 42 1;
#X connect 50 0 25 0;
#X connect 51 0 43 1;
#X connect 52 0 14 0;
#X connect 53 0 0 0;
#X connect 53 0 1 0;
#X connect 54 0 40 1;
#X connect 55 0 23 0;
#X connect 56 0 24 0;
#X connect 57 0 37 0;
#X connect 58 0 38 0;
#X connect 59 0 39 0;
#X connect 60 0 10 1;
#X connect 65 0 9 0;
#X connect 65 0 61 0;
#X connect 66 0 47 0;
#X connect 66 1 67 0;
#X connect 68 0 64 0;
#X connect 69 0 34 0;
#X connect 70 0 41 0;
#X connect 71 0 7 0;
#X connect 72 0 66 0;
#X connect 73 0 66 1;
#X connect 74 0 8 0;
#X coords 0 -1 1 1 120 120 1 600 100;
