#N canvas 269 60 753 695 10;
#X obj 223 362 inlet~;
#N canvas 558 381 450 300 channel 0;
#X obj 122 28 inlet~;
#X obj 122 202 *~;
#X obj 203 166 line~;
#X obj 122 265 outlet~;
#X obj 203 28 inlet;
#X msg 203 118 \$1 100;
#X connect 0 0 1 0;
#X connect 1 0 3 0;
#X connect 2 0 1 1;
#X connect 4 0 5 0;
#X connect 5 0 2 0;
#X restore 223 437 pd channel;
#X obj 343 362 inlet~;
#N canvas 558 381 450 300 channel 0;
#X obj 122 28 inlet~;
#X obj 122 202 *~;
#X obj 203 166 line~;
#X obj 122 265 outlet~;
#X obj 203 28 inlet;
#X msg 203 118 \$1 100;
#X connect 0 0 1 0;
#X connect 1 0 3 0;
#X connect 2 0 1 1;
#X connect 4 0 5 0;
#X connect 5 0 2 0;
#X restore 343 437 pd channel;
#X obj 463 362 inlet~;
#N canvas 558 381 450 300 channel 0;
#X obj 122 28 inlet~;
#X obj 122 202 *~;
#X obj 203 166 line~;
#X obj 122 265 outlet~;
#X obj 203 28 inlet;
#X msg 203 118 \$1 100;
#X connect 0 0 1 0;
#X connect 1 0 3 0;
#X connect 2 0 1 1;
#X connect 4 0 5 0;
#X connect 5 0 2 0;
#X restore 463 437 pd channel;
#X obj 585 362 inlet~;
#N canvas 558 381 450 300 channel 0;
#X obj 122 28 inlet~;
#X obj 122 202 *~;
#X obj 203 166 line~;
#X obj 122 265 outlet~;
#X obj 203 28 inlet;
#X msg 203 118 \$1 100;
#X connect 0 0 1 0;
#X connect 1 0 3 0;
#X connect 2 0 1 1;
#X connect 4 0 5 0;
#X connect 5 0 2 0;
#X restore 585 437 pd channel;
#X obj 220 132 vsl 15 128 0 1 0 0 empty empty empty 0 -9 0 10 -262144
-1 -1 0 1;
#X obj 240 132 vsl 15 128 0 1 0 0 empty empty empty 0 -9 0 10 -262144
-1 -1 0 1;
#X obj 260 132 vsl 15 128 0 1 0 0 empty empty empty 0 -9 0 10 -262144
-1 -1 0 1;
#X obj 280 132 vsl 15 128 0 1 0 0 empty empty empty 0 -9 0 10 -262144
-1 -1 0 1;
#X obj 223 644 outlet~;
#X obj 315 132 vsl 15 128 0 1 0 0 empty empty empty 0 -9 0 10 -262144
-1 -1 0 1;
#X obj 259 575 line~;
#X obj 223 497 +~;
#X obj 223 609 *~;
#X obj 210 316 s \$0_ch1;
#X obj 269 316 s \$0_ch2;
#X obj 328 317 s \$0_ch3;
#X obj 387 317 s \$0_ch4;
#X obj 447 317 s \$0_master;
#X obj 280 402 r \$0_ch1;
#X obj 400 400 r \$0_ch2;
#X obj 520 397 r \$0_ch3;
#X obj 642 390 r \$0_ch4;
#X obj 259 526 r \$0_master;
#X msg 259 552 \$1 100;
#X obj 18 49 switch~;
#X obj 18 19 param \$1 on-off \$0 0;
#X obj 33 113 param \$1 ch1 \$0 0.5;
#X obj 33 135 param \$1 ch2 \$0 0.5;
#X obj 33 158 param \$1 ch3 \$0 0.5;
#X obj 33 180 param \$1 ch4 \$0 0.5;
#X obj 33 202 param \$1 master \$0 1;
#X connect 0 0 1 0;
#X connect 1 0 15 0;
#X connect 2 0 3 0;
#X connect 3 0 15 0;
#X connect 4 0 5 0;
#X connect 5 0 15 0;
#X connect 6 0 7 0;
#X connect 7 0 15 0;
#X connect 8 0 17 0;
#X connect 9 0 18 0;
#X connect 10 0 19 0;
#X connect 11 0 20 0;
#X connect 13 0 21 0;
#X connect 14 0 16 1;
#X connect 15 0 16 0;
#X connect 16 0 12 0;
#X connect 22 0 1 1;
#X connect 23 0 3 1;
#X connect 24 0 5 1;
#X connect 25 0 7 1;
#X connect 26 0 27 0;
#X connect 27 0 14 0;
#X connect 29 0 28 0;
#X connect 30 0 8 0;
#X connect 31 0 9 0;
#X connect 32 0 10 0;
#X connect 33 0 11 0;
#X connect 34 0 13 0;
#X coords 0 -1 1 1 170 170 1 200 100;
