#N canvas 0 22 1280 752 10;
#X obj 145 1119 sig~, f 9;
#X obj 145 1179 outlet~;
#X obj 18 49 switch~;
#X obj 35 629 threshold~ 0.5 0 -0.5 0;
#X obj 35 466 inlet~;
#X obj 83 710 + 1;
#X obj 35 709 f 0;
#X msg 35 669 bang;
#X floatatom 35 809 5 0 0 0 - - -, f 5;
#X floatatom 56 749 5 0 0 0 - - -, f 5;
#X obj 35 779 % 16;
#X floatatom 35 929 5 0 0 0 - - -, f 5;
#X obj 35 1179 outlet~;
#X msg 145 1059 1;
#X msg 178 1059 0;
#X text 967 583 glide;
#X obj 255 1178 outlet~;
#X obj 365 1178 outlet~, f 8;
#X obj 255 1119 sig~, f 9;
#X msg 255 1059 1;
#X msg 288 1059 0;
#X obj 365 1119 sig~, f 9;
#X msg 365 1059 1;
#X msg 398 1059 0;
#X obj 170 669 s \$0_off;
#X obj 178 1029 r \$0_off;
#X obj 288 1029 r \$0_off;
#X obj 398 1029 r \$0_off;
#X floatatom 145 929 5 0 0 0 - - -, f 5;
#X floatatom 255 929 5 0 0 0 - - -, f 5;
#X floatatom 365 929 5 0 0 0 - - -, f 5;
#X obj 145 969 sel 1;
#X obj 255 969 sel 1;
#X obj 365 969 sel 1;
#N canvas 0 22 510 717 arrays 0;
#N canvas 0 22 450 278 (subpatch) 0;
#X array \$0_bus1 16 float 3;
#A 0 0 0 0 0 0 0 0 0 0 0 0 0 0 0 0 0;
#X coords 0 0 16 1 200 140 1 0 0;
#X restore 50 371 graph;
#N canvas 0 22 450 278 (subpatch) 0;
#X array \$0_bus2 16 float 3;
#A 0 0 0 0 0 0 0 0 0 0 0 0 0 0 0 0 0;
#X coords 0 0 16 1 200 140 1 0 0;
#X restore 50 537 graph;
#N canvas 0 22 450 278 (subpatch) 0;
#X array \$0_steps 16 float 3;
#A 0 0 0 0 0 0 0 0 0 0 0 0 0 0 0 0 0;
#X coords 0 1 16 -1 200 140 1 0 0;
#X restore 50 31 graph;
#N canvas 0 22 450 278 (subpatch) 0;
#X array \$0_bus0 16 float 3;
#A 0 0 0 0 0 0 0 0 0 0 0 0 0 0 0 0 0;
#X coords 0 0 16 1 200 140 1 0 0;
#X restore 50 201 graph;
#X restore 980 509 pd arrays;
#X text 967 604 numeros de pasos capas;
#X floatatom 593 123 5 0 0 0 - - -, f 5;
#X obj 1032 136 s \$0_BPM;
#X obj 102 496 r \$0_BPM;
#X obj 570 123 tgl 15 0 empty empty empty 17 7 0 10 -262144 -1 -1 0
1;
#X obj 922 137 s \$0_clock_src;
#X obj 170 566 r \$0_clock_src;
#N canvas 0 22 460 384 switch 0;
#X obj 62 28 inlet~;
#X obj 62 242 *~;
#X obj 62 305 outlet~;
#X obj 262 242 *~;
#X obj 262 28 inlet~;
#X obj 82 162 sel 0, f 7;
#X obj 302 153 sel 1, f 7;
#X obj 343 27 inlet;
#X msg 82 192 1;
#X msg 121 192 0;
#X msg 302 183 1;
#X msg 341 183 0, f 23;
#X connect 0 0 1 0;
#X connect 1 0 2 0;
#X connect 3 0 2 0;
#X connect 4 0 3 0;
#X connect 5 0 8 0;
#X connect 5 1 9 0;
#X connect 6 0 10 0;
#X connect 6 1 11 0;
#X connect 7 0 5 0;
#X connect 7 0 6 0;
#X connect 8 0 1 1;
#X connect 9 0 1 1;
#X connect 10 0 3 1;
#X connect 11 0 3 1;
#X restore 35 599 pd switch;
#N canvas 777 139 303 350 internal_clock 0;
#X obj 195 70 / 60, f 5;
#X obj 195 130 phasor~;
#X obj 195 160 *~ 2;
#X obj 195 190 -~ 1;
#X obj 195 100 * 4;
#X obj 195 10 inlet;
#X obj 195 250 outlet~;
#X obj 15 200 switch~;
#X obj 15 10 r \$0_clock_src;
#X msg 15 290 0;
#X obj 15 260 sel 0, f 14;
#X obj 15 320 pipe 1;
#X connect 0 0 4 0;
#X connect 1 0 2 0;
#X connect 2 0 3 0;
#X connect 3 0 6 0;
#X connect 4 0 1 0;
#X connect 5 0 0 0;
#X connect 8 0 7 0;
#X connect 9 0 11 0;
#X connect 10 0 9 0;
#X restore 102 526 pd internal_clock;
#X obj 35 1119 line~;
#X obj 35 1059 pack;
#X floatatom 803 123 5 0 5000 0 - - -, f 5;
#X obj 1117 137 s \$0_glide;
#X obj 56 1029 r \$0_glide;
#X obj 35 889 tabread \$0_steps;
#X obj 145 889 tabread \$0_bus0;
#X obj 255 889 tabread \$0_bus1;
#X obj 365 889 tabread \$0_bus2;
#X obj 570 160 step \$1 0 \$0;
#X obj 23 106 param \$1 glide \$0 0;
#X obj 193 106 param \$1 clock_src \$0 1;
#X obj 383 106 param \$1 BPM \$0 120;
#X obj 18 19 param \$1 on-off \$0 0;
#X obj 588 160 step \$1 1 \$0;
#X obj 606 160 step \$1 2 \$0;
#X obj 624 160 step \$1 3 \$0;
#X obj 642 160 step \$1 4 \$0;
#X obj 660 160 step \$1 5 \$0;
#X obj 678 160 step \$1 6 \$0;
#X obj 696 160 step \$1 7 \$0;
#X obj 714 160 step \$1 8 \$0;
#X obj 732 160 step \$1 9 \$0;
#X obj 750 160 step \$1 10 \$0;
#X obj 768 160 step \$1 11 \$0;
#X obj 786 160 step \$1 12 \$0;
#X obj 804 160 step \$1 13 \$0;
#X obj 822 160 step \$1 14 \$0;
#X obj 840 160 step \$1 15 \$0;
#X connect 0 0 1 0;
#X connect 3 0 7 0;
#X connect 3 1 24 0;
#X connect 4 0 42 0;
#X connect 5 0 6 1;
#X connect 6 0 5 0;
#X connect 6 0 10 0;
#X connect 7 0 6 0;
#X connect 8 0 49 0;
#X connect 8 0 50 0;
#X connect 8 0 51 0;
#X connect 8 0 52 0;
#X connect 9 0 10 1;
#X connect 10 0 8 0;
#X connect 11 0 45 0;
#X connect 13 0 0 0;
#X connect 14 0 0 0;
#X connect 18 0 16 0;
#X connect 19 0 18 0;
#X connect 20 0 18 0;
#X connect 21 0 17 0;
#X connect 22 0 21 0;
#X connect 23 0 21 0;
#X connect 25 0 14 0;
#X connect 26 0 20 0;
#X connect 27 0 23 0;
#X connect 28 0 31 0;
#X connect 29 0 32 0;
#X connect 30 0 33 0;
#X connect 31 0 13 0;
#X connect 32 0 19 0;
#X connect 33 0 22 0;
#X connect 36 0 37 0;
#X connect 38 0 43 0;
#X connect 39 0 40 0;
#X connect 41 0 42 2;
#X connect 42 0 3 0;
#X connect 43 0 42 1;
#X connect 44 0 12 0;
#X connect 45 0 44 0;
#X connect 46 0 47 0;
#X connect 48 0 45 1;
#X connect 49 0 11 0;
#X connect 50 0 28 0;
#X connect 51 0 29 0;
#X connect 52 0 30 0;
#X connect 54 0 46 0;
#X connect 55 0 39 0;
#X connect 56 0 36 0;
#X connect 57 0 2 0;
#X coords 0 -1 1 1 305 265 1 560 100;
