#N canvas 218 141 695 579 10;
#X obj 96 355 samphold~, f 33;
#X obj 96 253 inlet~;
#X obj 291 253 inlet~;
#X obj 96 620 outlet~;
#X floatatom 210 124 5 -100 100 0 - - -, f 5;
#X obj 96 585 line~;
#X obj 96 550 pack;
#X floatatom 210 190 5 0 5000 0 - - -, f 5;
#X obj 96 442 snapshot~;
#X obj 141 401 bang~;
#X obj 96 313 attenuator;
#X obj 96 478 change;
#X obj 351 138 s \$0_att_signal;
#X obj 351 204 s \$0_glide;
#X obj 153 253 r \$0_att_signal;
#X obj 117 508 r \$0_glide;
#X obj 18 49 switch~;
#X text 313 357 ver como triggear con otras formas de onda;
#X obj 18 19 param \$1 on-off \$0 0;
#X obj 9 107 param \$1 att_signal \$0 100;
#X obj 22 173 param \$1 glide \$0 0;
#X connect 0 0 8 0;
#X connect 1 0 10 0;
#X connect 2 0 0 1;
#X connect 4 0 12 0;
#X connect 5 0 3 0;
#X connect 6 0 5 0;
#X connect 7 0 13 0;
#X connect 8 0 11 0;
#X connect 9 0 8 0;
#X connect 10 0 0 0;
#X connect 11 0 6 0;
#X connect 14 0 10 1;
#X connect 15 0 6 1;
#X connect 18 0 16 0;
#X connect 19 0 4 0;
#X connect 20 0 7 0;
#X coords 0 -1 1 1 120 120 1 200 100;
