#N canvas 0 22 1280 752 10;
#X obj 610 148 hradio 15 1 0 5 empty empty empty 0 -8 0 10 -262144
-1 -1 0;
#X floatatom 610 196 5 0 100 0 - - -, f 5;
#X obj 126 585 expr~ $v1 != 0;
#X obj 22 944 *~;
#X obj 706 493 sig~;
#X obj 536 313 inlet~;
#X obj 536 550 +~;
#X obj 706 403 / 100;
#X obj 536 586 clip~ 0 1;
#X obj 536 403 /~ 2;
#X obj 43 828 == 0;
#X obj 173 828 == 1;
#X obj 433 403 sig~;
#X obj 22 313 inlet~;
#X obj 22 403 *~ 60;
#X obj 22 511 +~;
#X obj 433 444 ftom~;
#X obj 22 548 mtof~;
#X obj 22 1081 outlet~;
#X obj 706 463 line;
#X msg 706 433 \$1 10;
#X floatatom 610 124 5 -100 100 0 - - -, f 5;
#N canvas 392 237 579 497 antialias 0;
#X obj 22 200 *~ 0.125;
#X obj 22 223 rzero~ -1;
#X obj 22 246 rzero~ -1;
#X obj 22 269 rzero~ -1;
#X obj 123 72 block~ 1024 1 16;
#X obj 21 97 rpole~ 0.87467;
#X obj 21 74 *~ 0.12532;
#X obj 21 120 *~ 0.01668;
#X obj 21 143 cpole~ 0.9293 0.10812;
#X obj 21 169 cpole~ 0.9293 -0.10812;
#X obj 21 23 inlet~;
#X obj 22 329 outlet~;
#X connect 0 0 1 0;
#X connect 1 0 2 0;
#X connect 2 0 3 0;
#X connect 3 0 11 0;
#X connect 5 0 7 0;
#X connect 6 0 5 0;
#X connect 7 0 8 0;
#X connect 8 0 9 0;
#X connect 8 1 9 1;
#X connect 9 0 0 0;
#X connect 10 0 6 0;
#X restore 22 988 pd antialias;
#N canvas 385 226 256 294 freq_offset 0;
#X floatatom 20 50 8 0 20000 0 - - -, f 8;
#X obj 88 170 mtof;
#X floatatom 88 50 5 0 0 0 - - -, f 5;
#X obj 88 140 + 60;
#X obj 32 110 ftom;
#X msg 32 170 set \$1;
#X obj 32 140 - 60;
#X obj 103 80 wrap;
#X obj 88 110 -;
#X msg 166 80 set \$1;
#X obj 20 229 outlet;
#X obj 20 20 inlet;
#X obj 88 20 inlet;
#X obj 89 230 outlet;
#X connect 0 0 4 0;
#X connect 0 0 10 0;
#X connect 1 0 0 0;
#X connect 2 0 7 0;
#X connect 2 0 8 0;
#X connect 2 0 13 0;
#X connect 3 0 1 0;
#X connect 4 0 6 0;
#X connect 5 0 2 0;
#X connect 6 0 5 0;
#X connect 6 0 13 0;
#X connect 7 0 8 1;
#X connect 8 0 3 0;
#X connect 8 0 9 0;
#X connect 9 0 2 0;
#X connect 11 0 0 0;
#X connect 12 0 2 0;
#X coords 0 -1 1 1 100 14 2 20 50;
#X restore 610 173 pd freq_offset;
#X obj 232 313 inlet~;
#X obj 295 825 == 2;
#X obj 455 824 == 3;
#X obj 635 824 == 4;
#X floatatom 645 124 5 -100 100 0 - - -, f 5;
#X floatatom 680 124 5 -100 100 0 - - -, f 5;
#X obj 22 363 attenuator;
#X obj 232 363 attenuator;
#X obj 536 363 attenuator;
#X obj 751 138 s \$0_att_freq0;
#X obj 901 138 s \$0_att_freq1;
#X obj 1031 138 s \$0_att_pw;
#X obj 751 163 s \$0_shape;
#X obj 751 187 s \$0_freq;
#X obj 751 210 s \$0_pw;
#X obj 79 313 r \$0_att_freq0;
#X obj 289 313 r \$0_att_freq1;
#X obj 433 313 r \$0_freq;
#X obj 593 313 r \$0_att_pw;
#X obj 706 313 r \$0_pw;
#X obj 22 759 r~ \$0_freq;
#X obj 551 796 r~ \$0_width;
#X obj 43 801 r \$0_shape;
#X obj 173 800 r \$0_shape;
#X obj 295 797 r \$0_shape;
#X obj 455 797 r \$0_shape;
#X obj 635 797 r \$0_shape;
#X obj 410 901 r~ \$0_gate;
#X obj 22 625 s~ \$0_freq;
#X obj 126 625 s~ \$0_gate;
#X obj 536 625 s~ \$0_width;
#X obj 18 47 switch~;
#X obj 66 107 param \$1 att_freq0 \$0 100;
#X obj 236 107 param \$1 att_freq1 \$0 100;
#X obj 406 107 param \$1 att_pw \$0 100;
#X obj 406 131 param \$1 shape \$0 0;
#X obj 236 156 param \$1 freq \$0 261.626;
#X obj 406 156 param \$1 offset \$0 0;
#X obj 406 179 param \$1 pw \$0 50;
#X obj 18 17 param \$1 on-off \$0 0;
#X obj 152 858 ramp;
#X obj 22 858 sine;
#X obj 280 854 saw;
#X obj 535 854 square;
#X obj 410 854 triangle;
#X obj 152 759 r~ \$0_freq;
#X obj 280 759 r~ \$0_freq;
#X obj 410 759 r~ \$0_freq;
#X obj 535 759 r~ \$0_freq;
#X connect 0 0 36 0;
#X connect 1 0 38 0;
#X connect 2 0 53 0;
#X connect 3 0 22 0;
#X connect 4 0 6 1;
#X connect 5 0 32 0;
#X connect 6 0 8 0;
#X connect 7 0 20 0;
#X connect 8 0 54 0;
#X connect 9 0 6 0;
#X connect 10 0 65 1;
#X connect 11 0 64 1;
#X connect 12 0 16 0;
#X connect 13 0 30 0;
#X connect 14 0 15 0;
#X connect 15 0 17 0;
#X connect 16 0 15 1;
#X connect 17 0 2 0;
#X connect 17 0 52 0;
#X connect 19 0 4 0;
#X connect 20 0 19 0;
#X connect 21 0 33 0;
#X connect 22 0 18 0;
#X connect 23 0 37 0;
#X connect 24 0 31 0;
#X connect 25 0 66 1;
#X connect 26 0 68 1;
#X connect 27 0 67 2;
#X connect 28 0 34 0;
#X connect 29 0 35 0;
#X connect 30 0 14 0;
#X connect 31 0 14 0;
#X connect 32 0 9 0;
#X connect 39 0 30 1;
#X connect 40 0 31 1;
#X connect 41 0 12 0;
#X connect 42 0 32 1;
#X connect 43 0 7 0;
#X connect 44 0 65 0;
#X connect 45 0 67 1;
#X connect 46 0 10 0;
#X connect 47 0 11 0;
#X connect 48 0 25 0;
#X connect 49 0 26 0;
#X connect 50 0 27 0;
#X connect 51 0 3 1;
#X connect 56 0 21 0;
#X connect 57 0 28 0;
#X connect 58 0 29 0;
#X connect 59 0 0 0;
#X connect 60 0 23 0;
#X connect 61 0 23 1;
#X connect 62 0 1 0;
#X connect 63 0 55 0;
#X connect 64 0 3 0;
#X connect 65 0 3 0;
#X connect 66 0 3 0;
#X connect 67 0 3 0;
#X connect 68 0 3 0;
#X connect 69 0 64 0;
#X connect 70 0 66 0;
#X connect 71 0 68 0;
#X connect 72 0 67 0;
#X coords 0 -1 1 1 120 120 1 600 100;
