#N canvas 184 23 598 724 10;
#X obj 26 283 inlet~;
#X obj 26 657 outlet~;
#X obj 26 610 *~;
#X obj 87 283 inlet~;
#X obj 210 166 tgl 15 0 empty empty empty 17 7 0 10 -262144 -1 -1 0
1;
#X obj 214 381 clip~ 0 1;
#X obj 87 482 *~;
#X obj 214 482 *~;
#X obj 102 438 == 0;
#X floatatom 278 115 5 -100 100 0 - - -, f 5;
#X obj 87 580 +~;
#X floatatom 210 145 5 0 1 0 - - -, f 5;
#X obj 87 343 attenuator;
#X obj 342 129 s \$0_att_control;
#X obj 343 159 s \$0_base;
#X obj 341 181 s \$0_clip;
#X obj 144 283 r \$0_att_control;
#X obj 102 405 r \$0_clip;
#X obj 229 405 r \$0_clip;
#X obj 162 543 r \$0_base;
#X obj 18 49 switch~;
#X obj 18 19 param \$1 on-off \$0 0;
#X obj 11 98 param \$1 att_control \$0 100;
#X obj 11 128 param \$1 base \$0 0;
#X obj 11 149 param \$1 clip \$0 0;
#X connect 0 0 2 0;
#X connect 2 0 1 0;
#X connect 3 0 12 0;
#X connect 4 0 15 0;
#X connect 5 0 7 0;
#X connect 6 0 10 0;
#X connect 7 0 10 0;
#X connect 8 0 6 1;
#X connect 9 0 13 0;
#X connect 10 0 2 1;
#X connect 11 0 14 0;
#X connect 12 0 6 0;
#X connect 12 0 5 0;
#X connect 16 0 12 1;
#X connect 17 0 8 0;
#X connect 18 0 7 1;
#X connect 19 0 10 1;
#X connect 21 0 20 0;
#X connect 22 0 9 0;
#X connect 23 0 11 0;
#X connect 24 0 4 0;
#X coords 0 -1 1 1 120 120 1 200 100;
