#N canvas 0 22 1280 752 10;
#X obj 34 777 vcf~, f 29;
#X obj 335 777 hip~, f 29;
#X obj 506 697 snapshot~;
#X obj 34 928 *~;
#X obj 335 930 *~;
#X obj 205 928 *~;
#X obj 586 662 metro 1;
#X obj 506 750 line;
#X obj 438 343 sig~;
#X obj 253 273 inlet~;
#X obj 253 383 *~ 60;
#X obj 438 383 ftom~;
#X obj 253 460 mtof~;
#X floatatom 410 170 8 0 20000 0 - - -, f 8;
#X floatatom 410 190 5 0 100 0 - - -, f 5;
#X obj 410 150 hradio 15 1 0 3 empty empty empty 0 -8 0 10 -262144
-1 -1 0;
#X obj 350 897 == 2;
#X obj 220 897 == 0;
#X obj 49 896 == 1;
#X obj 34 273 inlet~;
#X obj 34 1023 outlet~;
#X obj 253 423 +~;
#X msg 506 724 \$1 2;
#X floatatom 410 130 5 -100 100 0 - - -, f 5;
#X floatatom 480 130 5 -100 100 0 - - -, f 5;
#X obj 34 343 attenuator;
#X obj 253 343 attenuator;
#X obj 556 144 s \$0_att_signal;
#X obj 686 144 s \$0_att_freq;
#X obj 556 164 s \$0_mode;
#X obj 556 184 s \$0_freq;
#X obj 556 204 s \$0_q;
#X obj 91 273 r \$0_att_signal;
#X obj 310 273 r \$0_att_freq;
#X obj 438 273 r \$0_freq;
#X obj 34 511 s~ \$0_signal;
#X obj 253 510 s~ \$0_freq;
#X obj 34 608 r~ \$0_signal;
#X obj 119 608 r~ \$0_freq;
#X obj 205 608 r \$0_q;
#X obj 335 608 r~ \$0_signal;
#X obj 506 608 r~ \$0_freq;
#X obj 49 869 r \$0_mode;
#X obj 220 869 r \$0_mode;
#X obj 350 870 r \$0_mode;
#X obj 18 49 switch~;
#X obj 18 19 param \$1 on-off \$0 0;
#X obj 29 113 param \$1 att_signal \$0 100;
#X obj 209 113 param \$1 att_freq \$0 100;
#X obj 209 133 param \$1 mode \$0 0;
#X obj 209 153 param \$1 freq \$0 261.626;
#X obj 209 173 param \$1 q \$0 1;
#X obj 586 637 r \$1_load;
#X connect 0 0 3 0;
#X connect 0 1 5 0;
#X connect 1 0 4 0;
#X connect 2 0 22 0;
#X connect 3 0 20 0;
#X connect 4 0 20 0;
#X connect 5 0 20 0;
#X connect 6 0 2 0;
#X connect 7 0 1 1;
#X connect 8 0 11 0;
#X connect 9 0 26 0;
#X connect 10 0 21 0;
#X connect 11 0 21 1;
#X connect 12 0 36 0;
#X connect 13 0 30 0;
#X connect 14 0 31 0;
#X connect 15 0 29 0;
#X connect 16 0 4 1;
#X connect 17 0 5 1;
#X connect 18 0 3 1;
#X connect 19 0 25 0;
#X connect 21 0 12 0;
#X connect 22 0 7 0;
#X connect 23 0 27 0;
#X connect 24 0 28 0;
#X connect 25 0 35 0;
#X connect 26 0 10 0;
#X connect 32 0 25 1;
#X connect 33 0 26 1;
#X connect 34 0 8 0;
#X connect 37 0 0 0;
#X connect 38 0 0 1;
#X connect 39 0 0 2;
#X connect 40 0 1 0;
#X connect 41 0 2 0;
#X connect 42 0 18 0;
#X connect 43 0 17 0;
#X connect 44 0 16 0;
#X connect 46 0 45 0;
#X connect 47 0 23 0;
#X connect 48 0 24 0;
#X connect 49 0 15 0;
#X connect 50 0 13 0;
#X connect 51 0 14 0;
#X connect 52 0 6 0;
#X coords 0 -1 1 1 120 120 1 400 100;
